solid printrbot-plus-nut-keeper
facet normal -1.0 0.0 0.0
outer loop
vertex -46.3073778806973 18.8545395053678 21.4669990539551
vertex -46.3073778806973 18.424539200192 22.4979991912842
vertex -46.3073778806973 18.6491447604947 22.4979991912842
endloop
endfacet
facet normal -1.0 0.0 0.0
outer loop
vertex -46.3073778806973 34.5525375522428 27.0
vertex -46.3073778806973 26.4295383609586 23.6329746246338
vertex -46.3073778806973 26.4295383609586 27.0
endloop
endfacet
facet normal -1.0 0.0 0.0
outer loop
vertex -46.3073778806973 26.4295383609586 23.6329746246338
vertex -46.3073778806973 34.5525375522428 27.0
vertex -46.3073778806973 26.5555378116422 22.9979991912842
endloop
endfacet
facet normal -1.0 0.0 0.0
outer loop
vertex -46.3073778806973 18.424539200192 27.0
vertex -46.3073778806973 10.5525375522428 0.0
vertex -46.3073778806973 10.5525375522428 27.0
endloop
endfacet
facet normal -1.0 0.0 0.0
outer loop
vertex -46.3073778806973 10.5525375522428 0.0
vertex -46.3073778806973 18.424539200192 27.0
vertex -46.3073778806973 18.424539200192 22.4979991912842
endloop
endfacet
facet normal -1.0 0.0 0.0
outer loop
vertex -46.3073778806973 10.5525375522428 0.0
vertex -46.3073778806973 18.424539200192 22.4979991912842
vertex -46.3073778806973 18.8545395053678 21.4669990539551
endloop
endfacet
facet normal -1.0 0.0 0.0
outer loop
vertex -46.3073778806973 10.5525375522428 0.0
vertex -46.3073778806973 18.8545395053678 21.4669990539551
vertex -46.3073778806973 19.7215362705045 20.168999671936
endloop
endfacet
facet normal -1.0 0.0 0.0
outer loop
vertex -46.3073778806973 10.5525375522428 0.0
vertex -46.3073778806973 19.7215362705045 20.168999671936
vertex -46.3073778806973 34.5525375522428 0.0
endloop
endfacet
facet normal -1.0 0.0 0.0
outer loop
vertex -46.3073778806973 34.5525375522428 0.0
vertex -46.3073778806973 19.7215362705045 20.168999671936
vertex -46.3073778806973 21.0205398715787 19.3020000457764
endloop
endfacet
facet normal -1.0 0.0 0.0
outer loop
vertex -46.3073778806973 34.5525375522428 0.0
vertex -46.3073778806973 21.0205398715787 19.3020000457764
vertex -46.3073778806973 22.5525375522428 18.9969997406006
endloop
endfacet
facet normal -1.0 0.0 0.0
outer loop
vertex -46.3073778806973 34.5525375522428 0.0
vertex -46.3073778806973 22.5525375522428 18.9969997406006
vertex -46.3073778806973 24.0845390476041 19.3020000457764
endloop
endfacet
facet normal -1.0 0.0 0.0
outer loop
vertex -46.3073778806973 34.5525375522428 0.0
vertex -46.3073778806973 24.0845390476041 19.3020000457764
vertex -46.3073778806973 25.3835388339811 20.168999671936
endloop
endfacet
facet normal -1.0 0.0 0.0
outer loop
vertex -46.3073778806973 34.5525375522428 0.0
vertex -46.3073778806973 25.3835388339811 20.168999671936
vertex -46.3073778806973 26.2515388644986 21.4669990539551
endloop
endfacet
facet normal -1.0 0.0 0.0
outer loop
vertex -46.3073778806973 34.5525375522428 0.0
vertex -46.3073778806973 26.2515388644986 21.4669990539551
vertex -46.3073778806973 26.5555378116422 22.9979991912842
endloop
endfacet
facet normal -1.0 0.0 0.0
outer loop
vertex -46.3073778806973 34.5525375522428 0.0
vertex -46.3073778806973 26.5555378116422 22.9979991912842
vertex -46.3073778806973 34.5525375522428 27.0
endloop
endfacet
facet normal 0.0 0.0 -1.0
outer loop
vertex 7.49262211930274 34.5525375522428 0.0
vertex -46.3073778806973 10.5525375522428 0.0
vertex -46.3073778806973 34.5525375522428 0.0
endloop
endfacet
facet normal 0.0 0.0 -1.0
outer loop
vertex -46.3073778806973 10.5525375522428 0.0
vertex 7.49262211930274 34.5525375522428 0.0
vertex 7.49262211930274 10.5525375522428 0.0
endloop
endfacet
facet normal 1.0 0.0 0.0
outer loop
vertex 7.49262211930274 18.8545395053678 21.4669990539551
vertex 7.49262211930274 18.6491447604947 22.4979991912842
vertex 7.49262211930274 18.424539200192 22.4979991912842
endloop
endfacet
facet normal 1.0 0.0 0.0
outer loop
vertex 7.49262211930274 34.5525375522428 0.0
vertex 7.49262211930274 10.5525375522428 27.0
vertex 7.49262211930274 10.5525375522428 0.0
endloop
endfacet
facet normal 1.0 0.0 0.0
outer loop
vertex 7.49262211930274 10.5525375522428 27.0
vertex 7.49262211930274 34.5525375522428 0.0
vertex 7.49262211930274 19.7215362705045 20.168999671936
endloop
endfacet
facet normal 1.0 0.0 0.0
outer loop
vertex 7.49262211930274 10.5525375522428 27.0
vertex 7.49262211930274 19.7215362705045 20.168999671936
vertex 7.49262211930274 18.8545395053678 21.4669990539551
endloop
endfacet
facet normal 1.0 0.0 0.0
outer loop
vertex 7.49262211930274 10.5525375522428 27.0
vertex 7.49262211930274 18.8545395053678 21.4669990539551
vertex 7.49262211930274 18.424539200192 22.4979991912842
endloop
endfacet
facet normal 1.0 0.0 0.0
outer loop
vertex 7.49262211930274 19.7215362705045 20.168999671936
vertex 7.49262211930274 34.5525375522428 0.0
vertex 7.49262211930274 21.0205398715787 19.3020000457764
endloop
endfacet
facet normal 1.0 0.0 0.0
outer loop
vertex 7.49262211930274 21.0205398715787 19.3020000457764
vertex 7.49262211930274 34.5525375522428 0.0
vertex 7.49262211930274 22.5525375522428 18.9969997406006
endloop
endfacet
facet normal 1.0 0.0 0.0
outer loop
vertex 7.49262211930274 22.5525375522428 18.9969997406006
vertex 7.49262211930274 34.5525375522428 0.0
vertex 7.49262211930274 24.0845390476041 19.3020000457764
endloop
endfacet
facet normal 1.0 0.0 0.0
outer loop
vertex 7.49262211930274 24.0845390476041 19.3020000457764
vertex 7.49262211930274 34.5525375522428 0.0
vertex 7.49262211930274 25.3835388339811 20.168999671936
endloop
endfacet
facet normal 1.0 0.0 0.0
outer loop
vertex 7.49262211930274 25.3835388339811 20.168999671936
vertex 7.49262211930274 34.5525375522428 0.0
vertex 7.49262211930274 26.2515388644986 21.4669990539551
endloop
endfacet
facet normal 1.0 0.0 0.0
outer loop
vertex 7.49262211930274 26.2515388644986 21.4669990539551
vertex 7.49262211930274 34.5525375522428 0.0
vertex 7.49262211930274 26.5555378116422 22.9979991912842
endloop
endfacet
facet normal 1.0 0.0 0.0
outer loop
vertex 7.49262211930274 26.5555378116422 22.9979991912842
vertex 7.49262211930274 26.4295383609586 27.0
vertex 7.49262211930274 26.4295383609586 23.6329746246338
endloop
endfacet
facet normal 1.0 0.0 0.0
outer loop
vertex 7.49262211930274 26.4295383609586 27.0
vertex 7.49262211930274 26.5555378116422 22.9979991912842
vertex 7.49262211930274 34.5525375522428 27.0
endloop
endfacet
facet normal 1.0 0.0 0.0
outer loop
vertex 7.49262211930274 34.5525375522428 27.0
vertex 7.49262211930274 26.5555378116422 22.9979991912842
vertex 7.49262211930274 34.5525375522428 0.0
endloop
endfacet
facet normal 1.0 0.0 0.0
outer loop
vertex 7.49262211930274 18.424539200192 27.0
vertex 7.49262211930274 10.5525375522428 27.0
vertex 7.49262211930274 18.424539200192 22.4979991912842
endloop
endfacet
facet normal 0.0 0.0 1.0
outer loop
vertex 7.49262211930274 26.4295383609586 27.0
vertex 3.49562214028358 34.5525375522428 27.0
vertex 3.49562214028358 26.4295383609586 27.0
endloop
endfacet
facet normal 0.0 0.0 1.0
outer loop
vertex 3.49562214028358 34.5525375522428 27.0
vertex 7.49262211930274 26.4295383609586 27.0
vertex 7.49262211930274 34.5525375522428 27.0
endloop
endfacet
facet normal 0.0 0.0 1.0
outer loop
vertex 7.49262211930274 10.5525375522428 27.0
vertex 3.49562214028358 18.424539200192 27.0
vertex 3.49562214028358 10.5525375522428 27.0
endloop
endfacet
facet normal 0.0 0.0 1.0
outer loop
vertex 3.49562214028358 18.424539200192 27.0
vertex 7.49262211930274 10.5525375522428 27.0
vertex 7.49262211930274 18.424539200192 27.0
endloop
endfacet
facet normal 0.0 0.0 1.0
outer loop
vertex -42.310376232748 26.4295383609586 27.0
vertex -46.3073778806973 34.5525375522428 27.0
vertex -46.3073778806973 26.4295383609586 27.0
endloop
endfacet
facet normal 0.0 0.0 1.0
outer loop
vertex -46.3073778806973 34.5525375522428 27.0
vertex -42.310376232748 26.4295383609586 27.0
vertex -42.310376232748 34.5525375522428 27.0
endloop
endfacet
facet normal 0.0 0.0 1.0
outer loop
vertex -42.310376232748 10.5525375522428 27.0
vertex -46.3073778806973 18.424539200192 27.0
vertex -46.3073778806973 10.5525375522428 27.0
endloop
endfacet
facet normal 0.0 0.0 1.0
outer loop
vertex -46.3073778806973 18.424539200192 27.0
vertex -42.310376232748 10.5525375522428 27.0
vertex -42.310376232748 18.424539200192 27.0
endloop
endfacet
facet normal 1.0 0.0 0.0
outer loop
vertex -42.310376232748 18.8545395053678 21.4669990539551
vertex -42.310376232748 18.6491447604947 22.4979991912842
vertex -42.310376232748 18.424539200192 22.4979991912842
endloop
endfacet
facet normal 3.79003469998913e-034 -2.57770044682003e-017 1.0
outer loop
vertex -7.95587745297432 10.5525375522428 3.99699997901916
vertex -30.8588766394901 16.2125375522428 3.99699997901916
vertex -30.8588766394901 10.5525375522428 3.99699997901916
endloop
endfacet
facet normal 3.79003469998913e-034 -2.57770044682003e-017 1.0
outer loop
vertex -30.8588766394901 16.2125375522428 3.99699997901916
vertex -42.310376232748 34.5525375522428 3.99699997901916
vertex -42.310376232748 16.2125375522428 3.99699997901916
endloop
endfacet
facet normal 3.79003469998913e-034 -2.57770044682003e-017 1.0
outer loop
vertex -42.310376232748 34.5525375522428 3.99699997901916
vertex -30.8588766394901 16.2125375522428 3.99699997901916
vertex 3.49562214028358 34.5525375522428 3.99699997901916
endloop
endfacet
facet normal 3.79003469998913e-034 -2.57770044682003e-017 1.0
outer loop
vertex 3.49562214028358 34.5525375522428 3.99699997901916
vertex -30.8588766394901 16.2125375522428 3.99699997901916
vertex -7.95587745297432 16.2125375522428 3.99699997901916
endloop
endfacet
facet normal 3.79003469998913e-034 -2.57770044682003e-017 1.0
outer loop
vertex -7.95587745297432 16.2125375522428 3.99699997901916
vertex -30.8588766394901 16.2125375522428 3.99699997901916
vertex -7.95587745297432 10.5525375522428 3.99699997901916
endloop
endfacet
facet normal 3.79003469998913e-034 -2.57770044682003e-017 1.0
outer loop
vertex 3.49562214028358 34.5525375522428 3.99699997901916
vertex -7.95587745297432 16.2125375522428 3.99699997901916
vertex 3.49562214028358 16.2125375522428 3.99699997901916
endloop
endfacet
facet normal -1.0 0.0 0.0
outer loop
vertex 3.49562214028358 18.8545395053678 21.4669990539551
vertex 3.49562214028358 18.424539200192 22.4979991912842
vertex 3.49562214028358 18.6491447604947 22.4979991912842
endloop
endfacet
facet normal -1.0 -1.38376265093577e-032 5.16765894173522e-033
outer loop
vertex 3.49562214028358 34.5525375522428 27.0
vertex 3.49562214028358 26.4295383609586 23.6329746246338
vertex 3.49562214028358 26.4295383609586 27.0
endloop
endfacet
facet normal -1.0 -1.38376265093577e-032 5.16765894173522e-033
outer loop
vertex 3.49562214028358 26.4295383609586 23.6329746246338
vertex 3.49562214028358 34.5525375522428 27.0
vertex 3.49562214028358 28.8925375522428 24.5
endloop
endfacet
facet normal -1.0 -1.38376265093577e-032 5.16765894173522e-033
outer loop
vertex 3.49562214028358 26.4295383609586 23.6329746246338
vertex 3.49562214028358 28.8925375522428 24.5
vertex 3.49562214028358 26.5555378116422 22.9979991912842
endloop
endfacet
facet normal -1.0 -1.38376265093577e-032 5.16765894173522e-033
outer loop
vertex 3.49562214028358 28.8925375522428 24.5
vertex 3.49562214028358 34.5525375522428 27.0
vertex 3.49562214028358 34.5525375522428 24.5
endloop
endfacet
facet normal -1.0 -1.38376265093577e-032 5.16765894173522e-033
outer loop
vertex 3.49562214028358 18.424539200192 27.0
vertex 3.49562214028358 10.5525375522428 24.5
vertex 3.49562214028358 10.5525375522428 27.0
endloop
endfacet
facet normal -1.0 -1.38376265093577e-032 5.16765894173522e-033
outer loop
vertex 3.49562214028358 10.5525375522428 24.5
vertex 3.49562214028358 18.424539200192 27.0
vertex 3.49562214028358 16.2125375522428 24.5
endloop
endfacet
facet normal -1.0 -1.38376265093577e-032 5.16765894173522e-033
outer loop
vertex 3.49562214028358 16.2125375522428 24.5
vertex 3.49562214028358 18.424539200192 27.0
vertex 3.49562214028358 16.2125375522428 20.5
endloop
endfacet
facet normal -1.0 -1.38376265093577e-032 5.16765894173522e-033
outer loop
vertex 3.49562214028358 16.2125375522428 20.5
vertex 3.49562214028358 18.424539200192 27.0
vertex 3.49562214028358 16.2125375522428 10.0969999790192
endloop
endfacet
facet normal -1.0 -1.38376265093577e-032 5.16765894173522e-033
outer loop
vertex 3.49562214028358 16.2125375522428 10.0969999790192
vertex 3.49562214028358 18.424539200192 27.0
vertex 3.49562214028358 16.2125375522428 3.99699997901916
endloop
endfacet
facet normal -1.0 -1.38376265093577e-032 5.16765894173522e-033
outer loop
vertex 3.49562214028358 16.2125375522428 3.99699997901916
vertex 3.49562214028358 18.424539200192 27.0
vertex 3.49562214028358 18.424539200192 22.4979991912842
endloop
endfacet
facet normal -1.0 -1.38376265093577e-032 5.16765894173522e-033
outer loop
vertex 3.49562214028358 16.2125375522428 3.99699997901916
vertex 3.49562214028358 18.424539200192 22.4979991912842
vertex 3.49562214028358 18.8545395053678 21.4669990539551
endloop
endfacet
facet normal -1.0 -1.38376265093577e-032 5.16765894173522e-033
outer loop
vertex 3.49562214028358 16.2125375522428 3.99699997901916
vertex 3.49562214028358 18.8545395053678 21.4669990539551
vertex 3.49562214028358 19.7215362705045 20.168999671936
endloop
endfacet
facet normal -1.0 -1.38376265093577e-032 5.16765894173522e-033
outer loop
vertex 3.49562214028358 16.2125375522428 3.99699997901916
vertex 3.49562214028358 19.7215362705045 20.168999671936
vertex 3.49562214028358 34.5525375522428 3.99699997901916
endloop
endfacet
facet normal -1.0 -1.38376265093577e-032 5.16765894173522e-033
outer loop
vertex 3.49562214028358 34.5525375522428 3.99699997901916
vertex 3.49562214028358 19.7215362705045 20.168999671936
vertex 3.49562214028358 21.0205398715787 19.3020000457764
endloop
endfacet
facet normal -1.0 -1.38376265093577e-032 5.16765894173522e-033
outer loop
vertex 3.49562214028358 34.5525375522428 3.99699997901916
vertex 3.49562214028358 21.0205398715787 19.3020000457764
vertex 3.49562214028358 22.5525375522428 18.9969997406006
endloop
endfacet
facet normal -1.0 -1.38376265093577e-032 5.16765894173522e-033
outer loop
vertex 3.49562214028358 34.5525375522428 3.99699997901916
vertex 3.49562214028358 22.5525375522428 18.9969997406006
vertex 3.49562214028358 24.0845390476041 19.3020000457764
endloop
endfacet
facet normal -1.0 -1.38376265093577e-032 5.16765894173522e-033
outer loop
vertex 3.49562214028358 34.5525375522428 3.99699997901916
vertex 3.49562214028358 24.0845390476041 19.3020000457764
vertex 3.49562214028358 25.3835388339811 20.168999671936
endloop
endfacet
facet normal -1.0 -1.38376265093577e-032 5.16765894173522e-033
outer loop
vertex 3.49562214028358 34.5525375522428 3.99699997901916
vertex 3.49562214028358 25.3835388339811 20.168999671936
vertex 3.49562214028358 26.2515388644986 21.4669990539551
endloop
endfacet
facet normal -1.0 -1.38376265093577e-032 5.16765894173522e-033
outer loop
vertex 3.49562214028358 34.5525375522428 3.99699997901916
vertex 3.49562214028358 26.2515388644986 21.4669990539551
vertex 3.49562214028358 26.5555378116422 22.9979991912842
endloop
endfacet
facet normal -1.0 -1.38376265093577e-032 5.16765894173522e-033
outer loop
vertex 3.49562214028358 34.5525375522428 3.99699997901916
vertex 3.49562214028358 26.5555378116422 22.9979991912842
vertex 3.49562214028358 28.8925375522428 20.5
endloop
endfacet
facet normal -1.0 -1.38376265093577e-032 5.16765894173522e-033
outer loop
vertex 3.49562214028358 28.8925375522428 20.5
vertex 3.49562214028358 26.5555378116422 22.9979991912842
vertex 3.49562214028358 28.8925375522428 24.5
endloop
endfacet
facet normal -1.0 -1.38376265093577e-032 5.16765894173522e-033
outer loop
vertex 3.49562214028358 34.5525375522428 3.99699997901916
vertex 3.49562214028358 28.8925375522428 20.5
vertex 3.49562214028358 34.5525375522428 20.5
endloop
endfacet
facet normal -1.0 -1.38376265093577e-032 5.16765894173522e-033
outer loop
vertex 3.49562214028358 16.2125375522428 20.5
vertex 3.49562214028358 10.5525375522428 10.0969999790192
vertex 3.49562214028358 10.5525375522428 20.5
endloop
endfacet
facet normal -1.0 -1.38376265093577e-032 5.16765894173522e-033
outer loop
vertex 3.49562214028358 10.5525375522428 10.0969999790192
vertex 3.49562214028358 16.2125375522428 20.5
vertex 3.49562214028358 16.2125375522428 10.0969999790192
endloop
endfacet
facet normal 0.0 1.0 0.0
outer loop
vertex 3.49562214028358 18.424539200192 27.0
vertex 7.49262211930274 18.424539200192 22.4979991912842
vertex 3.49562214028358 18.424539200192 22.4979991912842
endloop
endfacet
facet normal 0.0 1.0 0.0
outer loop
vertex 7.49262211930274 18.424539200192 22.4979991912842
vertex 3.49562214028358 18.424539200192 27.0
vertex 7.49262211930274 18.424539200192 27.0
endloop
endfacet
facet normal 0.0 0.0 1.0
outer loop
vertex 7.49262211930274 18.6491447604947 22.4979991912842
vertex 3.49562214028358 18.6491447604947 22.4979991912842
vertex 7.49262211930274 18.424539200192 22.4979991912842
endloop
endfacet
facet normal 0.0 0.0 1.0
outer loop
vertex 7.49262211930274 18.424539200192 22.4979991912842
vertex 3.49562214028358 18.6491447604947 22.4979991912842
vertex 3.49562214028358 18.424539200192 22.4979991912842
endloop
endfacet
facet normal 0.0 -1.0 0.0
outer loop
vertex 7.49262211930274 26.4295383609586 27.0
vertex 3.49562214028358 26.4295383609586 23.6329746246338
vertex 7.49262211930274 26.4295383609586 23.6329746246338
endloop
endfacet
facet normal 0.0 -1.0 0.0
outer loop
vertex 3.49562214028358 26.4295383609586 23.6329746246338
vertex 7.49262211930274 26.4295383609586 27.0
vertex 3.49562214028358 26.4295383609586 27.0
endloop
endfacet
facet normal -2.51656483924757e-018 -0.980875330542335 -0.194637062075715
outer loop
vertex 7.49262211930274 26.4295383609586 23.6329746246338
vertex 3.49562214028358 26.5555378116422 22.9979991912842
vertex 7.49262211930274 26.5555378116422 22.9979991912842
endloop
endfacet
facet normal -5.03312967849514e-018 -0.980875330542335 -0.194637062075715
outer loop
vertex 3.49562214028358 26.4295383609586 23.6329746246338
vertex 3.49562214028358 26.5555378116422 22.9979991912842
vertex 7.49262211930274 26.4295383609586 23.6329746246338
endloop
endfacet
facet normal 6.92597127248602e-018 -0.980850919906397 0.194760039327308
outer loop
vertex 3.49562214028358 26.5555378116422 22.9979991912842
vertex 7.49262211930274 26.2515388644986 21.4669990539551
vertex 7.49262211930274 26.5555378116422 22.9979991912842
endloop
endfacet
facet normal -7.63535344701551e-018 0.980727709897785 0.195379525638299
outer loop
vertex 7.49262211930274 18.6491447604947 22.4979991912842
vertex 3.49562214028358 18.8545395053678 21.4669990539551
vertex 3.49562214028358 18.6491447604947 22.4979991912842
endloop
endfacet
facet normal 3.26336196461636e-017 -0.555143302314816 0.831754719791238
outer loop
vertex 7.49262211930274 25.3835388339811 20.168999671936
vertex 3.49562214028358 25.3835388339811 20.168999671936
vertex 3.49562214028358 24.0845390476041 19.3020000457764
endloop
endfacet
facet normal 0.0 -0.195254285962302 0.980752651698353
outer loop
vertex 7.49262211930274 22.5525375522428 18.9969997406006
vertex 3.49562214028358 24.0845390476041 19.3020000457764
vertex 3.49562214028358 22.5525375522428 18.9969997406006
endloop
endfacet
facet normal 1.3851942544972e-017 -0.980850919906397 0.194760039327308
outer loop
vertex 3.49562214028358 26.5555378116422 22.9979991912842
vertex 3.49562214028358 26.2515388644986 21.4669990539551
vertex 7.49262211930274 26.2515388644986 21.4669990539551
endloop
endfacet
facet normal -2.68837017371971e-017 -0.831261117485799 0.555882140886232
outer loop
vertex 3.49562214028358 26.2515388644986 21.4669990539551
vertex 3.49562214028358 25.3835388339811 20.168999671936
vertex 7.49262211930274 26.2515388644986 21.4669990539551
endloop
endfacet
facet normal -1.38325220530487e-017 0.19525475361287 0.980752558595479
outer loop
vertex 7.49262211930274 22.5525375522428 18.9969997406006
vertex 3.49562214028358 21.0205398715787 19.3020000457764
vertex 7.49262211930274 21.0205398715787 19.3020000457764
endloop
endfacet
facet normal 1.6316728757258e-017 0.555142174478784 0.831755472548854
outer loop
vertex 7.49262211930274 19.7215362705045 20.168999671936
vertex 3.49562214028358 21.0205398715787 19.3020000457764
vertex 3.49562214028358 19.7215362705045 20.168999671936
endloop
endfacet
facet normal 3.2633457514516e-017 0.555142174478784 0.831755472548854
outer loop
vertex 7.49262211930274 21.0205398715787 19.3020000457764
vertex 3.49562214028358 21.0205398715787 19.3020000457764
vertex 7.49262211930274 19.7215362705045 20.168999671936
endloop
endfacet
facet normal 8.06799092514353e-017 0.831557997215916 0.555437932865819
outer loop
vertex 3.49562214028358 18.8545395053678 21.4669990539551
vertex 7.49262211930274 19.7215362705045 20.168999671936
vertex 3.49562214028358 19.7215362705045 20.168999671936
endloop
endfacet
facet normal 3.26762120676691e-017 0.831557997215916 0.555437932865819
outer loop
vertex 7.49262211930274 18.8545395053678 21.4669990539551
vertex 7.49262211930274 19.7215362705045 20.168999671936
vertex 3.49562214028358 18.8545395053678 21.4669990539551
endloop
endfacet
facet normal -7.63535344701551e-018 0.980727709897785 0.195379525638299
outer loop
vertex 7.49262211930274 18.6491447604947 22.4979991912842
vertex 7.49262211930274 18.8545395053678 21.4669990539551
vertex 3.49562214028358 18.8545395053678 21.4669990539551
endloop
endfacet
facet normal 6.91626102652435e-018 0.19525475361287 0.980752558595479
outer loop
vertex 7.49262211930274 22.5525375522428 18.9969997406006
vertex 3.49562214028358 22.5525375522428 18.9969997406006
vertex 3.49562214028358 21.0205398715787 19.3020000457764
endloop
endfacet
facet normal 1.63168098230818e-017 -0.555143302314816 0.831754719791238
outer loop
vertex 7.49262211930274 25.3835388339811 20.168999671936
vertex 3.49562214028358 24.0845390476041 19.3020000457764
vertex 7.49262211930274 24.0845390476041 19.3020000457764
endloop
endfacet
facet normal -6.91622724002266e-018 -0.195254285962302 0.980752651698353
outer loop
vertex 7.49262211930274 24.0845390476041 19.3020000457764
vertex 3.49562214028358 24.0845390476041 19.3020000457764
vertex 7.49262211930274 22.5525375522428 18.9969997406006
endloop
endfacet
facet normal 0.0 -0.831261117485799 0.555882140886232
outer loop
vertex 7.49262211930274 26.2515388644986 21.4669990539551
vertex 3.49562214028358 25.3835388339811 20.168999671936
vertex 7.49262211930274 25.3835388339811 20.168999671936
endloop
endfacet
facet normal 0.0 1.0 0.0
outer loop
vertex -46.3073778806973 18.424539200192 27.0
vertex -42.310376232748 18.424539200192 22.4979991912842
vertex -46.3073778806973 18.424539200192 22.4979991912842
endloop
endfacet
facet normal 0.0 1.0 0.0
outer loop
vertex -42.310376232748 18.424539200192 22.4979991912842
vertex -46.3073778806973 18.424539200192 27.0
vertex -42.310376232748 18.424539200192 27.0
endloop
endfacet
facet normal 0.0 0.0 1.0
outer loop
vertex -42.310376232748 18.424539200192 22.4979991912842
vertex -46.3073778806973 18.6491447604947 22.4979991912842
vertex -46.3073778806973 18.424539200192 22.4979991912842
endloop
endfacet
facet normal 0.0 0.0 1.0
outer loop
vertex -42.310376232748 18.6491447604947 22.4979991912842
vertex -46.3073778806973 18.6491447604947 22.4979991912842
vertex -42.310376232748 18.424539200192 22.4979991912842
endloop
endfacet
facet normal 0.0 -1.0 0.0
outer loop
vertex -42.310376232748 26.4295383609586 27.0
vertex -46.3073778806973 26.4295383609586 23.6329746246338
vertex -42.310376232748 26.4295383609586 23.6329746246338
endloop
endfacet
facet normal 0.0 -1.0 0.0
outer loop
vertex -46.3073778806973 26.4295383609586 23.6329746246338
vertex -42.310376232748 26.4295383609586 27.0
vertex -46.3073778806973 26.4295383609586 27.0
endloop
endfacet
facet normal -2.51656273768736e-018 -0.980875330542335 -0.194637062075715
outer loop
vertex -42.310376232748 26.4295383609586 23.6329746246338
vertex -46.3073778806973 26.5555378116422 22.9979991912842
vertex -42.310376232748 26.5555378116422 22.9979991912842
endloop
endfacet
facet normal -5.03312547537472e-018 -0.980875330542335 -0.194637062075715
outer loop
vertex -46.3073778806973 26.4295383609586 23.6329746246338
vertex -46.3073778806973 26.5555378116422 22.9979991912842
vertex -42.310376232748 26.4295383609586 23.6329746246338
endloop
endfacet
facet normal 0.0 0.831557997215916 0.555437932865819
outer loop
vertex -42.310376232748 18.8545395053678 21.4669990539551
vertex -46.3073778806973 19.7215362705045 20.168999671936
vertex -46.3073778806973 18.8545395053678 21.4669990539551
endloop
endfacet
facet normal 1.14530206062028e-017 0.980727709897785 0.195379525638299
outer loop
vertex -46.3073778806973 18.6491447604947 22.4979991912842
vertex -42.310376232748 18.8545395053678 21.4669990539551
vertex -46.3073778806973 18.8545395053678 21.4669990539551
endloop
endfacet
facet normal 1.63167961970636e-017 -0.555143302314816 0.831754719791238
outer loop
vertex -42.310376232748 25.3835388339811 20.168999671936
vertex -46.3073778806973 25.3835388339811 20.168999671936
vertex -46.3073778806973 24.0845390476041 19.3020000457764
endloop
endfacet
facet normal 6.91622146434473e-018 -0.195254285962302 0.980752651698353
outer loop
vertex -42.310376232748 22.5525375522428 18.9969997406006
vertex -46.3073778806973 24.0845390476041 19.3020000457764
vertex -46.3073778806973 22.5525375522428 18.9969997406006
endloop
endfacet
facet normal 6.92596548867094e-018 -0.980850919906397 0.194760039327308
outer loop
vertex -46.3073778806973 26.5555378116422 22.9979991912842
vertex -42.310376232748 26.2515388644986 21.4669990539551
vertex -42.310376232748 26.5555378116422 22.9979991912842
endloop
endfacet
facet normal 6.92596548867094e-018 -0.980850919906397 0.194760039327308
outer loop
vertex -46.3073778806973 26.5555378116422 22.9979991912842
vertex -46.3073778806973 26.2515388644986 21.4669990539551
vertex -42.310376232748 26.2515388644986 21.4669990539551
endloop
endfacet
facet normal 1.63322594253133e-017 -0.831261117485799 0.555882140886232
outer loop
vertex -46.3073778806973 26.2515388644986 21.4669990539551
vertex -46.3073778806973 25.3835388339811 20.168999671936
vertex -42.310376232748 26.2515388644986 21.4669990539551
endloop
endfacet
facet normal 6.91625525081821e-018 0.19525475361287 0.980752558595479
outer loop
vertex -42.310376232748 21.0205398715787 19.3020000457764
vertex -46.3073778806973 22.5525375522428 18.9969997406006
vertex -46.3073778806973 21.0205398715787 19.3020000457764
endloop
endfacet
facet normal 0.0 0.555142174478784 0.831755472548854
outer loop
vertex -42.310376232748 19.7215362705045 20.168999671936
vertex -46.3073778806973 21.0205398715787 19.3020000457764
vertex -46.3073778806973 19.7215362705045 20.168999671936
endloop
endfacet
facet normal 0.0 0.555142174478784 0.831755472548854
outer loop
vertex -42.310376232748 21.0205398715787 19.3020000457764
vertex -46.3073778806973 21.0205398715787 19.3020000457764
vertex -42.310376232748 19.7215362705045 20.168999671936
endloop
endfacet
facet normal 0.0 0.831557997215916 0.555437932865819
outer loop
vertex -42.310376232748 18.8545395053678 21.4669990539551
vertex -42.310376232748 19.7215362705045 20.168999671936
vertex -46.3073778806973 19.7215362705045 20.168999671936
endloop
endfacet
facet normal 1.14530206062028e-017 0.980727709897785 0.195379525638299
outer loop
vertex -42.310376232748 18.6491447604947 22.4979991912842
vertex -42.310376232748 18.8545395053678 21.4669990539551
vertex -46.3073778806973 18.6491447604947 22.4979991912842
endloop
endfacet
facet normal 0.0 0.19525475361287 0.980752558595479
outer loop
vertex -42.310376232748 22.5525375522428 18.9969997406006
vertex -46.3073778806973 22.5525375522428 18.9969997406006
vertex -42.310376232748 21.0205398715787 19.3020000457764
endloop
endfacet
facet normal 1.63167961970636e-017 -0.555143302314816 0.831754719791238
outer loop
vertex -42.310376232748 25.3835388339811 20.168999671936
vertex -46.3073778806973 24.0845390476041 19.3020000457764
vertex -42.310376232748 24.0845390476041 19.3020000457764
endloop
endfacet
facet normal 0.0 -0.195254285962302 0.980752651698353
outer loop
vertex -42.310376232748 24.0845390476041 19.3020000457764
vertex -46.3073778806973 24.0845390476041 19.3020000457764
vertex -42.310376232748 22.5525375522428 18.9969997406006
endloop
endfacet
facet normal 1.63322594253133e-017 -0.831261117485799 0.555882140886232
outer loop
vertex -42.310376232748 26.2515388644986 21.4669990539551
vertex -46.3073778806973 25.3835388339811 20.168999671936
vertex -42.310376232748 25.3835388339811 20.168999671936
endloop
endfacet
facet normal 1.0 0.0 0.0
outer loop
vertex -39.310376232748 16.2125375522428 20.5
vertex -39.310376232748 10.5525375522428 22.5
vertex -39.310376232748 10.5525375522428 20.5
endloop
endfacet
facet normal 1.0 0.0 0.0
outer loop
vertex -39.310376232748 10.5525375522428 22.5
vertex -39.310376232748 16.2125375522428 20.5
vertex -39.310376232748 16.2125375522428 22.5
endloop
endfacet
facet normal 0.0 0.0 -1.0
outer loop
vertex -39.310376232748 16.2125375522428 20.5
vertex -42.310376232748 10.5525375522428 20.5
vertex -42.310376232748 16.2125375522428 20.5
endloop
endfacet
facet normal 0.0 0.0 -1.0
outer loop
vertex -42.310376232748 10.5525375522428 20.5
vertex -39.310376232748 16.2125375522428 20.5
vertex -39.310376232748 10.5525375522428 20.5
endloop
endfacet
facet normal 0.0 1.0 0.0
outer loop
vertex -42.310376232748 16.2125375522428 24.5
vertex -39.310376232748 16.2125375522428 20.5
vertex -42.310376232748 16.2125375522428 20.5
endloop
endfacet
facet normal 0.0 1.0 0.0
outer loop
vertex -39.310376232748 16.2125375522428 20.5
vertex -42.310376232748 16.2125375522428 24.5
vertex -39.310376232748 16.2125375522428 22.5
endloop
endfacet
facet normal -0.0 -0.0 -1.0
outer loop
vertex 3.49562214028358 16.2125375522428 20.5
vertex 0.495622140283578 10.5525375522428 20.5
vertex 0.495622140283578 16.2125375522428 20.5
endloop
endfacet
facet normal -0.0 -0.0 -1.0
outer loop
vertex 0.495622140283578 10.5525375522428 20.5
vertex 3.49562214028358 16.2125375522428 20.5
vertex 3.49562214028358 10.5525375522428 20.5
endloop
endfacet
facet normal -1.0 0.0 0.0
outer loop
vertex 0.495622140283578 10.5525375522428 22.5
vertex 0.495622140283578 16.2125375522428 20.5
vertex 0.495622140283578 10.5525375522428 20.5
endloop
endfacet
facet normal -1.0 0.0 0.0
outer loop
vertex 0.495622140283578 16.2125375522428 20.5
vertex 0.495622140283578 10.5525375522428 22.5
vertex 0.495622140283578 16.2125375522428 22.5
endloop
endfacet
facet normal 0.0 1.0 0.0
outer loop
vertex 0.495622140283578 16.2125375522428 22.5
vertex 3.49562214028358 16.2125375522428 20.5
vertex 0.495622140283578 16.2125375522428 20.5
endloop
endfacet
facet normal 0.0 1.0 0.0
outer loop
vertex 3.49562214028358 16.2125375522428 20.5
vertex 0.495622140283578 16.2125375522428 22.5
vertex 3.49562214028358 16.2125375522428 24.5
endloop
endfacet
facet normal 1.0 0.0 0.0
outer loop
vertex -42.310376232748 34.5525375522428 3.99699997901916
vertex -42.310376232748 16.2125375522428 10.0969999790192
vertex -42.310376232748 16.2125375522428 3.99699997901916
endloop
endfacet
facet normal 1.0 0.0 0.0
outer loop
vertex -42.310376232748 16.2125375522428 10.0969999790192
vertex -42.310376232748 34.5525375522428 3.99699997901916
vertex -42.310376232748 16.2125375522428 20.5
endloop
endfacet
facet normal 1.0 0.0 0.0
outer loop
vertex -42.310376232748 16.2125375522428 20.5
vertex -42.310376232748 34.5525375522428 3.99699997901916
vertex -42.310376232748 19.7215362705045 20.168999671936
endloop
endfacet
facet normal 1.0 0.0 0.0
outer loop
vertex -42.310376232748 16.2125375522428 20.5
vertex -42.310376232748 19.7215362705045 20.168999671936
vertex -42.310376232748 16.2125375522428 24.5
endloop
endfacet
facet normal 1.0 0.0 0.0
outer loop
vertex -42.310376232748 16.2125375522428 24.5
vertex -42.310376232748 19.7215362705045 20.168999671936
vertex -42.310376232748 18.8545395053678 21.4669990539551
endloop
endfacet
facet normal 1.0 0.0 0.0
outer loop
vertex -42.310376232748 16.2125375522428 24.5
vertex -42.310376232748 18.8545395053678 21.4669990539551
vertex -42.310376232748 18.424539200192 22.4979991912842
endloop
endfacet
facet normal 1.0 0.0 0.0
outer loop
vertex -42.310376232748 19.7215362705045 20.168999671936
vertex -42.310376232748 34.5525375522428 3.99699997901916
vertex -42.310376232748 21.0205398715787 19.3020000457764
endloop
endfacet
facet normal 1.0 0.0 0.0
outer loop
vertex -42.310376232748 21.0205398715787 19.3020000457764
vertex -42.310376232748 34.5525375522428 3.99699997901916
vertex -42.310376232748 22.5525375522428 18.9969997406006
endloop
endfacet
facet normal 1.0 0.0 0.0
outer loop
vertex -42.310376232748 22.5525375522428 18.9969997406006
vertex -42.310376232748 34.5525375522428 3.99699997901916
vertex -42.310376232748 24.0845390476041 19.3020000457764
endloop
endfacet
facet normal 1.0 0.0 0.0
outer loop
vertex -42.310376232748 24.0845390476041 19.3020000457764
vertex -42.310376232748 34.5525375522428 3.99699997901916
vertex -42.310376232748 25.3835388339811 20.168999671936
endloop
endfacet
facet normal 1.0 0.0 0.0
outer loop
vertex -42.310376232748 25.3835388339811 20.168999671936
vertex -42.310376232748 34.5525375522428 3.99699997901916
vertex -42.310376232748 26.2515388644986 21.4669990539551
endloop
endfacet
facet normal 1.0 0.0 0.0
outer loop
vertex -42.310376232748 26.2515388644986 21.4669990539551
vertex -42.310376232748 34.5525375522428 3.99699997901916
vertex -42.310376232748 26.5555378116422 22.9979991912842
endloop
endfacet
facet normal 1.0 0.0 0.0
outer loop
vertex -42.310376232748 26.5555378116422 22.9979991912842
vertex -42.310376232748 34.5525375522428 3.99699997901916
vertex -42.310376232748 28.8925375522428 20.5
endloop
endfacet
facet normal 1.0 0.0 0.0
outer loop
vertex -42.310376232748 28.8925375522428 20.5
vertex -42.310376232748 34.5525375522428 3.99699997901916
vertex -42.310376232748 34.5525375522428 20.5
endloop
endfacet
facet normal 1.0 0.0 0.0
outer loop
vertex -42.310376232748 26.5555378116422 22.9979991912842
vertex -42.310376232748 26.4295383609586 27.0
vertex -42.310376232748 26.4295383609586 23.6329746246338
endloop
endfacet
facet normal 1.0 0.0 0.0
outer loop
vertex -42.310376232748 26.4295383609586 27.0
vertex -42.310376232748 26.5555378116422 22.9979991912842
vertex -42.310376232748 28.8925375522428 24.5
endloop
endfacet
facet normal 1.0 0.0 0.0
outer loop
vertex -42.310376232748 26.4295383609586 27.0
vertex -42.310376232748 28.8925375522428 24.5
vertex -42.310376232748 34.5525375522428 27.0
endloop
endfacet
facet normal 1.0 0.0 0.0
outer loop
vertex -42.310376232748 28.8925375522428 24.5
vertex -42.310376232748 26.5555378116422 22.9979991912842
vertex -42.310376232748 28.8925375522428 20.5
endloop
endfacet
facet normal 1.0 0.0 0.0
outer loop
vertex -42.310376232748 34.5525375522428 27.0
vertex -42.310376232748 28.8925375522428 24.5
vertex -42.310376232748 34.5525375522428 24.5
endloop
endfacet
facet normal 1.0 0.0 0.0
outer loop
vertex -42.310376232748 16.2125375522428 24.5
vertex -42.310376232748 10.5525375522428 27.0
vertex -42.310376232748 10.5525375522428 24.5
endloop
endfacet
facet normal 1.0 0.0 0.0
outer loop
vertex -42.310376232748 10.5525375522428 27.0
vertex -42.310376232748 16.2125375522428 24.5
vertex -42.310376232748 18.424539200192 27.0
endloop
endfacet
facet normal 1.0 0.0 0.0
outer loop
vertex -42.310376232748 18.424539200192 27.0
vertex -42.310376232748 16.2125375522428 24.5
vertex -42.310376232748 18.424539200192 22.4979991912842
endloop
endfacet
facet normal 1.0 0.0 0.0
outer loop
vertex -42.310376232748 16.2125375522428 10.0969999790192
vertex -42.310376232748 10.5525375522428 20.5
vertex -42.310376232748 10.5525375522428 10.0969999790192
endloop
endfacet
facet normal 1.0 0.0 0.0
outer loop
vertex -42.310376232748 10.5525375522428 20.5
vertex -42.310376232748 16.2125375522428 10.0969999790192
vertex -42.310376232748 16.2125375522428 20.5
endloop
endfacet
facet normal -0.554700196225229 -9.68931668375743e-018 0.832050294337843
outer loop
vertex 3.49562214028358 10.5525375522428 24.5
vertex 0.495622140283578 16.2125375522428 22.5
vertex 0.495622140283578 10.5525375522428 22.5
endloop
endfacet
facet normal -0.554700196225229 -9.68931668375743e-018 0.832050294337843
outer loop
vertex 0.495622140283578 16.2125375522428 22.5
vertex 3.49562214028358 10.5525375522428 24.5
vertex 3.49562214028358 16.2125375522428 24.5
endloop
endfacet
facet normal 0.554700196225229 1.45339750256356e-017 0.832050294337843
outer loop
vertex -39.310376232748 10.5525375522428 22.5
vertex -42.310376232748 16.2125375522428 24.5
vertex -42.310376232748 10.5525375522428 24.5
endloop
endfacet
facet normal 0.554700196225229 1.45339750256356e-017 0.832050294337843
outer loop
vertex -42.310376232748 16.2125375522428 24.5
vertex -39.310376232748 10.5525375522428 22.5
vertex -39.310376232748 16.2125375522428 22.5
endloop
endfacet
facet normal 1.0 0.0 0.0
outer loop
vertex -39.3103762327481 34.5525375522428 20.5
vertex -39.3103762327481 28.8925375522428 22.5
vertex -39.3103762327481 28.8925375522428 20.5
endloop
endfacet
facet normal 1.0 0.0 0.0
outer loop
vertex -39.3103762327481 28.8925375522428 22.5
vertex -39.3103762327481 34.5525375522428 20.5
vertex -39.3103762327481 34.5525375522428 22.5
endloop
endfacet
facet normal 2.25597318603833e-015 -1.0 1.12798659301916e-015
outer loop
vertex -39.3103762327481 28.8925375522428 22.5
vertex -42.310376232748 28.8925375522428 20.5
vertex -39.3103762327481 28.8925375522428 20.5
endloop
endfacet
facet normal 2.25597318603833e-015 -1.0 1.12798659301916e-015
outer loop
vertex -42.310376232748 28.8925375522428 20.5
vertex -39.3103762327481 28.8925375522428 22.5
vertex -42.310376232748 28.8925375522428 24.5
endloop
endfacet
facet normal 0.0 0.0 -1.0
outer loop
vertex -39.3103762327481 34.5525375522428 20.5
vertex -42.310376232748 28.8925375522428 20.5
vertex -42.310376232748 34.5525375522428 20.5
endloop
endfacet
facet normal 0.0 0.0 -1.0
outer loop
vertex -42.310376232748 28.8925375522428 20.5
vertex -39.3103762327481 34.5525375522428 20.5
vertex -39.3103762327481 28.8925375522428 20.5
endloop
endfacet
facet normal 0.554700196225232 1.45339750256334e-017 0.832050294337842
outer loop
vertex -39.3103762327481 28.8925375522428 22.5
vertex -42.310376232748 34.5525375522428 24.5
vertex -42.310376232748 28.8925375522428 24.5
endloop
endfacet
facet normal 0.554700196225232 1.45339750256334e-017 0.832050294337842
outer loop
vertex -42.310376232748 34.5525375522428 24.5
vertex -39.3103762327481 28.8925375522428 22.5
vertex -39.3103762327481 34.5525375522428 22.5
endloop
endfacet
facet normal 0.0 1.0 0.0
outer loop
vertex -46.3073778806973 34.5525375522428 0.0
vertex -42.310376232748 34.5525375522428 3.99699997901916
vertex 7.49262211930274 34.5525375522428 0.0
endloop
endfacet
facet normal 0.0 1.0 0.0
outer loop
vertex -42.310376232748 34.5525375522428 3.99699997901916
vertex -46.3073778806973 34.5525375522428 0.0
vertex -46.3073778806973 34.5525375522428 27.0
endloop
endfacet
facet normal 0.0 1.0 0.0
outer loop
vertex -42.310376232748 34.5525375522428 3.99699997901916
vertex -46.3073778806973 34.5525375522428 27.0
vertex -42.310376232748 34.5525375522428 20.5
endloop
endfacet
facet normal 0.0 1.0 0.0
outer loop
vertex -42.310376232748 34.5525375522428 20.5
vertex -46.3073778806973 34.5525375522428 27.0
vertex -39.3103762327481 34.5525375522428 20.5
endloop
endfacet
facet normal 0.0 1.0 0.0
outer loop
vertex -39.3103762327481 34.5525375522428 20.5
vertex -46.3073778806973 34.5525375522428 27.0
vertex -39.3103762327481 34.5525375522428 22.5
endloop
endfacet
facet normal 0.0 1.0 0.0
outer loop
vertex -39.3103762327481 34.5525375522428 22.5
vertex -46.3073778806973 34.5525375522428 27.0
vertex -42.310376232748 34.5525375522428 24.5
endloop
endfacet
facet normal 0.0 1.0 0.0
outer loop
vertex -42.310376232748 34.5525375522428 24.5
vertex -46.3073778806973 34.5525375522428 27.0
vertex -42.310376232748 34.5525375522428 27.0
endloop
endfacet
facet normal 0.0 1.0 0.0
outer loop
vertex 0.495622140283584 34.5525375522428 22.5
vertex 3.49562214028358 34.5525375522428 20.5
vertex 0.495622140283584 34.5525375522428 20.5
endloop
endfacet
facet normal 0.0 1.0 0.0
outer loop
vertex 7.49262211930274 34.5525375522428 0.0
vertex 3.49562214028358 34.5525375522428 3.99699997901916
vertex 7.49262211930274 34.5525375522428 27.0
endloop
endfacet
facet normal 0.0 1.0 0.0
outer loop
vertex 3.49562214028358 34.5525375522428 3.99699997901916
vertex 7.49262211930274 34.5525375522428 0.0
vertex -42.310376232748 34.5525375522428 3.99699997901916
endloop
endfacet
facet normal 0.0 1.0 0.0
outer loop
vertex 7.49262211930274 34.5525375522428 27.0
vertex 3.49562214028358 34.5525375522428 3.99699997901916
vertex 3.49562214028358 34.5525375522428 20.5
endloop
endfacet
facet normal 0.0 1.0 0.0
outer loop
vertex 7.49262211930274 34.5525375522428 27.0
vertex 3.49562214028358 34.5525375522428 20.5
vertex 0.495622140283584 34.5525375522428 22.5
endloop
endfacet
facet normal 0.0 1.0 0.0
outer loop
vertex 7.49262211930274 34.5525375522428 27.0
vertex 0.495622140283584 34.5525375522428 22.5
vertex 3.49562214028358 34.5525375522428 24.5
endloop
endfacet
facet normal 0.0 1.0 0.0
outer loop
vertex 7.49262211930274 34.5525375522428 27.0
vertex 3.49562214028358 34.5525375522428 24.5
vertex 3.49562214028358 34.5525375522428 27.0
endloop
endfacet
facet normal -1.0 0.0 0.0
outer loop
vertex 0.495622140283584 34.5525375522428 22.5
vertex 0.495622140283584 28.8925375522428 20.5
vertex 0.495622140283584 28.8925375522428 22.5
endloop
endfacet
facet normal -1.0 0.0 0.0
outer loop
vertex 0.495622140283584 28.8925375522428 20.5
vertex 0.495622140283584 34.5525375522428 22.5
vertex 0.495622140283584 34.5525375522428 20.5
endloop
endfacet
facet normal -0.0 -0.0 -1.0
outer loop
vertex 3.49562214028358 34.5525375522428 20.5
vertex 0.495622140283584 28.8925375522428 20.5
vertex 0.495622140283584 34.5525375522428 20.5
endloop
endfacet
facet normal -0.0 -0.0 -1.0
outer loop
vertex 0.495622140283584 28.8925375522428 20.5
vertex 3.49562214028358 34.5525375522428 20.5
vertex 3.49562214028358 28.8925375522428 20.5
endloop
endfacet
facet normal 0.0 -1.0 0.0
outer loop
vertex 3.49562214028358 28.8925375522428 24.5
vertex 0.495622140283584 28.8925375522428 20.5
vertex 3.49562214028358 28.8925375522428 20.5
endloop
endfacet
facet normal 0.0 -1.0 0.0
outer loop
vertex 0.495622140283584 28.8925375522428 20.5
vertex 3.49562214028358 28.8925375522428 24.5
vertex 0.495622140283584 28.8925375522428 22.5
endloop
endfacet
facet normal -0.55470019622523 0.0 0.832050294337843
outer loop
vertex 3.49562214028358 28.8925375522428 24.5
vertex 0.495622140283584 34.5525375522428 22.5
vertex 0.495622140283584 28.8925375522428 22.5
endloop
endfacet
facet normal -0.55470019622523 0.0 0.832050294337843
outer loop
vertex 0.495622140283584 34.5525375522428 22.5
vertex 3.49562214028358 28.8925375522428 24.5
vertex 3.49562214028358 34.5525375522428 24.5
endloop
endfacet
facet normal 0.0 0.0 1.0
outer loop
vertex 3.49562214028358 10.5525375522428 10.0969999790192
vertex -5.09300255465985 16.2125375522428 10.0969999790192
vertex -5.09300255465985 10.5525375522428 10.0969999790192
endloop
endfacet
facet normal 0.0 0.0 1.0
outer loop
vertex -5.09300255465985 16.2125375522428 10.0969999790192
vertex 3.49562214028358 10.5525375522428 10.0969999790192
vertex 3.49562214028358 16.2125375522428 10.0969999790192
endloop
endfacet
facet normal 0.0 1.0 0.0
outer loop
vertex -5.09300255465985 16.2125375522428 10.0969999790192
vertex 3.49562214028358 16.2125375522428 3.99699997901916
vertex -7.95587745297432 16.2125375522428 3.99699997901916
endloop
endfacet
facet normal 0.0 1.0 0.0
outer loop
vertex 3.49562214028358 16.2125375522428 3.99699997901916
vertex -5.09300255465985 16.2125375522428 10.0969999790192
vertex 3.49562214028358 16.2125375522428 10.0969999790192
endloop
endfacet
facet normal 0.0 0.0 1.0
outer loop
vertex -33.7217515378046 10.5525375522428 10.0969999790192
vertex -42.310376232748 16.2125375522428 10.0969999790192
vertex -42.310376232748 10.5525375522428 10.0969999790192
endloop
endfacet
facet normal 0.0 0.0 1.0
outer loop
vertex -42.310376232748 16.2125375522428 10.0969999790192
vertex -33.7217515378046 10.5525375522428 10.0969999790192
vertex -33.7217515378046 16.2125375522428 10.0969999790192
endloop
endfacet
facet normal 0.0 1.0 0.0
outer loop
vertex -42.310376232748 16.2125375522428 3.99699997901916
vertex -33.7217515378046 16.2125375522428 10.0969999790192
vertex -30.8588766394901 16.2125375522428 3.99699997901916
endloop
endfacet
facet normal 0.0 1.0 0.0
outer loop
vertex -33.7217515378046 16.2125375522428 10.0969999790192
vertex -42.310376232748 16.2125375522428 3.99699997901916
vertex -42.310376232748 16.2125375522428 10.0969999790192
endloop
endfacet
facet normal -1.12957238919058e-017 -1.0 6.07451293701791e-017
outer loop
vertex -5.09300255465985 10.5525375522428 10.0969999790192
vertex -7.95587745297432 10.5525375522428 3.99699997901916
vertex 3.49562214028358 10.5525375522428 10.0969999790192
endloop
endfacet
facet normal -1.12957238919058e-017 -1.0 6.07451293701791e-017
outer loop
vertex 7.49262211930274 10.5525375522428 0.0
vertex -7.95587745297432 10.5525375522428 3.99699997901916
vertex -46.3073778806973 10.5525375522428 0.0
endloop
endfacet
facet normal -1.12957238919058e-017 -1.0 6.07451293701791e-017
outer loop
vertex -7.95587745297432 10.5525375522428 3.99699997901916
vertex 7.49262211930274 10.5525375522428 0.0
vertex 3.49562214028358 10.5525375522428 10.0969999790192
endloop
endfacet
facet normal -1.12957238919058e-017 -1.0 6.07451293701791e-017
outer loop
vertex 3.49562214028358 10.5525375522428 10.0969999790192
vertex 7.49262211930274 10.5525375522428 0.0
vertex 7.49262211930274 10.5525375522428 27.0
endloop
endfacet
facet normal -1.12957238919058e-017 -1.0 6.07451293701791e-017
outer loop
vertex 3.49562214028358 10.5525375522428 10.0969999790192
vertex 7.49262211930274 10.5525375522428 27.0
vertex 3.49562214028358 10.5525375522428 20.5
endloop
endfacet
facet normal -1.12957238919058e-017 -1.0 6.07451293701791e-017
outer loop
vertex 3.49562214028358 10.5525375522428 20.5
vertex 7.49262211930274 10.5525375522428 27.0
vertex 0.495622140283578 10.5525375522428 20.5
endloop
endfacet
facet normal -1.12957238919058e-017 -1.0 6.07451293701791e-017
outer loop
vertex 0.495622140283578 10.5525375522428 20.5
vertex 7.49262211930274 10.5525375522428 27.0
vertex 0.495622140283578 10.5525375522428 22.5
endloop
endfacet
facet normal -1.12957238919058e-017 -1.0 6.07451293701791e-017
outer loop
vertex 0.495622140283578 10.5525375522428 22.5
vertex 7.49262211930274 10.5525375522428 27.0
vertex 3.49562214028358 10.5525375522428 24.5
endloop
endfacet
facet normal -1.12957238919058e-017 -1.0 6.07451293701791e-017
outer loop
vertex 3.49562214028358 10.5525375522428 24.5
vertex 7.49262211930274 10.5525375522428 27.0
vertex 3.49562214028358 10.5525375522428 27.0
endloop
endfacet
facet normal -1.12957238919058e-017 -1.0 6.07451293701791e-017
outer loop
vertex -39.310376232748 10.5525375522428 22.5
vertex -42.310376232748 10.5525375522428 20.5
vertex -39.310376232748 10.5525375522428 20.5
endloop
endfacet
facet normal -1.12957238919058e-017 -1.0 6.07451293701791e-017
outer loop
vertex -46.3073778806973 10.5525375522428 0.0
vertex -42.310376232748 10.5525375522428 10.0969999790192
vertex -46.3073778806973 10.5525375522428 27.0
endloop
endfacet
facet normal -1.12957238919058e-017 -1.0 6.07451293701791e-017
outer loop
vertex -42.310376232748 10.5525375522428 10.0969999790192
vertex -46.3073778806973 10.5525375522428 0.0
vertex -30.8588766394901 10.5525375522428 3.99699997901916
endloop
endfacet
facet normal -1.12957238919058e-017 -1.0 6.07451293701791e-017
outer loop
vertex -30.8588766394901 10.5525375522428 3.99699997901916
vertex -46.3073778806973 10.5525375522428 0.0
vertex -7.95587745297432 10.5525375522428 3.99699997901916
endloop
endfacet
facet normal -1.12957238919058e-017 -1.0 6.07451293701791e-017
outer loop
vertex -42.310376232748 10.5525375522428 10.0969999790192
vertex -30.8588766394901 10.5525375522428 3.99699997901916
vertex -33.7217515378046 10.5525375522428 10.0969999790192
endloop
endfacet
facet normal -1.12957238919058e-017 -1.0 6.07451293701791e-017
outer loop
vertex -46.3073778806973 10.5525375522428 27.0
vertex -42.310376232748 10.5525375522428 10.0969999790192
vertex -42.310376232748 10.5525375522428 20.5
endloop
endfacet
facet normal -1.12957238919058e-017 -1.0 6.07451293701791e-017
outer loop
vertex -46.3073778806973 10.5525375522428 27.0
vertex -42.310376232748 10.5525375522428 20.5
vertex -39.310376232748 10.5525375522428 22.5
endloop
endfacet
facet normal -1.12957238919058e-017 -1.0 6.07451293701791e-017
outer loop
vertex -46.3073778806973 10.5525375522428 27.0
vertex -39.310376232748 10.5525375522428 22.5
vertex -42.310376232748 10.5525375522428 24.5
endloop
endfacet
facet normal -1.12957238919058e-017 -1.0 6.07451293701791e-017
outer loop
vertex -46.3073778806973 10.5525375522428 27.0
vertex -42.310376232748 10.5525375522428 24.5
vertex -42.310376232748 10.5525375522428 27.0
endloop
endfacet
facet normal 0.905259228098814 0.0 0.424859659113383
outer loop
vertex -30.8588766394901 16.2125375522428 3.99699997901916
vertex -33.7217515378046 10.5525375522428 10.0969999790192
vertex -30.8588766394901 10.5525375522428 3.99699997901916
endloop
endfacet
facet normal 0.905259228098814 0.0 0.424859659113383
outer loop
vertex -33.7217515378046 10.5525375522428 10.0969999790192
vertex -30.8588766394901 16.2125375522428 3.99699997901916
vertex -33.7217515378046 16.2125375522428 10.0969999790192
endloop
endfacet
facet normal -0.905259228098814 0.0 0.424859659113382
outer loop
vertex -5.09300255465985 16.2125375522428 10.0969999790192
vertex -7.95587745297432 10.5525375522428 3.99699997901916
vertex -5.09300255465985 10.5525375522428 10.0969999790192
endloop
endfacet
facet normal -0.905259228098814 0.0 0.424859659113382
outer loop
vertex -7.95587745297432 10.5525375522428 3.99699997901916
vertex -5.09300255465985 16.2125375522428 10.0969999790192
vertex -7.95587745297432 16.2125375522428 3.99699997901916
endloop
endfacet
endsolid printrbot-plus-nut-keeper
