solid model
facet normal -1.0 0.0 0.0
outer loop
vertex -46.05 -35.1969985961914 21.4669990539551
vertex -46.05 -35.6269989013672 22.4979991912842
vertex -46.05 -35.4023933410645 22.4979991912842
endloop
endfacet
facet normal -1.0 0.0 0.0
outer loop
vertex -46.05 -19.4990005493164 27.0
vertex -46.05 -27.6219997406006 23.6329746246338
vertex -46.05 -27.6219997406006 27.0
endloop
endfacet
facet normal -1.0 0.0 0.0
outer loop
vertex -46.05 -27.6219997406006 23.6329746246338
vertex -46.05 -19.4990005493164 27.0
vertex -46.05 -27.496000289917 22.9979991912842
endloop
endfacet
facet normal -1.0 0.0 0.0
outer loop
vertex -46.05 -35.6269989013672 27.0
vertex -46.05 -43.4990005493164 0.0
vertex -46.05 -43.4990005493164 27.0
endloop
endfacet
facet normal -1.0 0.0 0.0
outer loop
vertex -46.05 -43.4990005493164 0.0
vertex -46.05 -35.6269989013672 27.0
vertex -46.05 -35.6269989013672 22.4979991912842
endloop
endfacet
facet normal -1.0 0.0 0.0
outer loop
vertex -46.05 -43.4990005493164 0.0
vertex -46.05 -35.6269989013672 22.4979991912842
vertex -46.05 -35.1969985961914 21.4669990539551
endloop
endfacet
facet normal -1.0 0.0 0.0
outer loop
vertex -46.05 -43.4990005493164 0.0
vertex -46.05 -35.1969985961914 21.4669990539551
vertex -46.05 -34.3300018310547 20.168999671936
endloop
endfacet
facet normal -1.0 0.0 0.0
outer loop
vertex -46.05 -43.4990005493164 0.0
vertex -46.05 -34.3300018310547 20.168999671936
vertex -46.05 -19.4990005493164 0.0
endloop
endfacet
facet normal -1.0 0.0 0.0
outer loop
vertex -46.05 -19.4990005493164 0.0
vertex -46.05 -34.3300018310547 20.168999671936
vertex -46.05 -33.0309982299805 19.3020000457764
endloop
endfacet
facet normal -1.0 0.0 0.0
outer loop
vertex -46.05 -19.4990005493164 0.0
vertex -46.05 -33.0309982299805 19.3020000457764
vertex -46.05 -31.4990005493164 18.9969997406006
endloop
endfacet
facet normal -1.0 0.0 0.0
outer loop
vertex -46.05 -19.4990005493164 0.0
vertex -46.05 -31.4990005493164 18.9969997406006
vertex -46.05 -29.9669990539551 19.3020000457764
endloop
endfacet
facet normal -1.0 0.0 0.0
outer loop
vertex -46.05 -19.4990005493164 0.0
vertex -46.05 -29.9669990539551 19.3020000457764
vertex -46.05 -28.6679992675781 20.168999671936
endloop
endfacet
facet normal -1.0 0.0 0.0
outer loop
vertex -46.05 -19.4990005493164 0.0
vertex -46.05 -28.6679992675781 20.168999671936
vertex -46.05 -27.7999992370605 21.4669990539551
endloop
endfacet
facet normal -1.0 0.0 0.0
outer loop
vertex -46.05 -19.4990005493164 0.0
vertex -46.05 -27.7999992370605 21.4669990539551
vertex -46.05 -27.496000289917 22.9979991912842
endloop
endfacet
facet normal -1.0 0.0 0.0
outer loop
vertex -46.05 -19.4990005493164 0.0
vertex -46.05 -27.496000289917 22.9979991912842
vertex -46.05 -19.4990005493164 27.0
endloop
endfacet
facet normal 0.0 0.0 -1.0
outer loop
vertex 7.75 -19.4990005493164 0.0
vertex -46.05 -43.4990005493164 0.0
vertex -46.05 -19.4990005493164 0.0
endloop
endfacet
facet normal 0.0 0.0 -1.0
outer loop
vertex -46.05 -43.4990005493164 0.0
vertex 7.75 -19.4990005493164 0.0
vertex 7.75 -43.4990005493164 0.0
endloop
endfacet
facet normal 1.0 0.0 0.0
outer loop
vertex 7.75 -35.1969985961914 21.4669990539551
vertex 7.75 -35.4023933410645 22.4979991912842
vertex 7.75 -35.6269989013672 22.4979991912842
endloop
endfacet
facet normal 1.0 0.0 0.0
outer loop
vertex 7.75 -19.4990005493164 0.0
vertex 7.75 -43.4990005493164 27.0
vertex 7.75 -43.4990005493164 0.0
endloop
endfacet
facet normal 1.0 0.0 0.0
outer loop
vertex 7.75 -43.4990005493164 27.0
vertex 7.75 -19.4990005493164 0.0
vertex 7.75 -34.3300018310547 20.168999671936
endloop
endfacet
facet normal 1.0 0.0 0.0
outer loop
vertex 7.75 -43.4990005493164 27.0
vertex 7.75 -34.3300018310547 20.168999671936
vertex 7.75 -35.1969985961914 21.4669990539551
endloop
endfacet
facet normal 1.0 0.0 0.0
outer loop
vertex 7.75 -43.4990005493164 27.0
vertex 7.75 -35.1969985961914 21.4669990539551
vertex 7.75 -35.6269989013672 22.4979991912842
endloop
endfacet
facet normal 1.0 0.0 0.0
outer loop
vertex 7.75 -34.3300018310547 20.168999671936
vertex 7.75 -19.4990005493164 0.0
vertex 7.75 -33.0309982299805 19.3020000457764
endloop
endfacet
facet normal 1.0 0.0 0.0
outer loop
vertex 7.75 -33.0309982299805 19.3020000457764
vertex 7.75 -19.4990005493164 0.0
vertex 7.75 -31.4990005493164 18.9969997406006
endloop
endfacet
facet normal 1.0 0.0 0.0
outer loop
vertex 7.75 -31.4990005493164 18.9969997406006
vertex 7.75 -19.4990005493164 0.0
vertex 7.75 -29.9669990539551 19.3020000457764
endloop
endfacet
facet normal 1.0 0.0 0.0
outer loop
vertex 7.75 -29.9669990539551 19.3020000457764
vertex 7.75 -19.4990005493164 0.0
vertex 7.75 -28.6679992675781 20.168999671936
endloop
endfacet
facet normal 1.0 0.0 0.0
outer loop
vertex 7.75 -28.6679992675781 20.168999671936
vertex 7.75 -19.4990005493164 0.0
vertex 7.75 -27.7999992370605 21.4669990539551
endloop
endfacet
facet normal 1.0 0.0 0.0
outer loop
vertex 7.75 -27.7999992370605 21.4669990539551
vertex 7.75 -19.4990005493164 0.0
vertex 7.75 -27.496000289917 22.9979991912842
endloop
endfacet
facet normal 1.0 0.0 0.0
outer loop
vertex 7.75 -27.496000289917 22.9979991912842
vertex 7.75 -27.6219997406006 27.0
vertex 7.75 -27.6219997406006 23.6329746246338
endloop
endfacet
facet normal 1.0 0.0 0.0
outer loop
vertex 7.75 -27.6219997406006 27.0
vertex 7.75 -27.496000289917 22.9979991912842
vertex 7.75 -19.4990005493164 27.0
endloop
endfacet
facet normal 1.0 0.0 0.0
outer loop
vertex 7.75 -19.4990005493164 27.0
vertex 7.75 -27.496000289917 22.9979991912842
vertex 7.75 -19.4990005493164 0.0
endloop
endfacet
facet normal 1.0 0.0 0.0
outer loop
vertex 7.75 -35.6269989013672 27.0
vertex 7.75 -43.4990005493164 27.0
vertex 7.75 -35.6269989013672 22.4979991912842
endloop
endfacet
facet normal 0.0 0.0 1.0
outer loop
vertex 7.75 -27.6219997406006 27.0
vertex 3.75300002098084 -19.4990005493164 27.0
vertex 3.75300002098084 -27.6219997406006 27.0
endloop
endfacet
facet normal 0.0 0.0 1.0
outer loop
vertex 3.75300002098084 -19.4990005493164 27.0
vertex 7.75 -27.6219997406006 27.0
vertex 7.75 -19.4990005493164 27.0
endloop
endfacet
facet normal 0.0 0.0 1.0
outer loop
vertex 7.75 -43.4990005493164 27.0
vertex 3.75300002098084 -35.6269989013672 27.0
vertex 3.75300002098084 -43.4990005493164 27.0
endloop
endfacet
facet normal 0.0 0.0 1.0
outer loop
vertex 3.75300002098084 -35.6269989013672 27.0
vertex 7.75 -43.4990005493164 27.0
vertex 7.75 -35.6269989013672 27.0
endloop
endfacet
facet normal 0.0 0.0 1.0
outer loop
vertex -42.0529983520508 -27.6219997406006 27.0
vertex -46.05 -19.4990005493164 27.0
vertex -46.05 -27.6219997406006 27.0
endloop
endfacet
facet normal 0.0 0.0 1.0
outer loop
vertex -46.05 -19.4990005493164 27.0
vertex -42.0529983520508 -27.6219997406006 27.0
vertex -42.0529983520508 -19.4990005493164 27.0
endloop
endfacet
facet normal 0.0 0.0 1.0
outer loop
vertex -42.0529983520508 -43.4990005493164 27.0
vertex -46.05 -35.6269989013672 27.0
vertex -46.05 -43.4990005493164 27.0
endloop
endfacet
facet normal 0.0 0.0 1.0
outer loop
vertex -46.05 -35.6269989013672 27.0
vertex -42.0529983520508 -43.4990005493164 27.0
vertex -42.0529983520508 -35.6269989013672 27.0
endloop
endfacet
facet normal 1.0 0.0 0.0
outer loop
vertex -42.0529983520508 -35.1969985961914 21.4669990539551
vertex -42.0529983520508 -35.4023933410645 22.4979991912842
vertex -42.0529983520508 -35.6269989013672 22.4979991912842
endloop
endfacet
facet normal 0.0 0.0 1.0
outer loop
vertex 3.75300002098084 -43.4990005493164 3.99699997901916
vertex -42.0529983520508 -19.4990005493164 3.99699997901916
vertex -42.0529983520508 -43.4990005493164 3.99699997901916
endloop
endfacet
facet normal 0.0 0.0 1.0
outer loop
vertex -42.0529983520508 -19.4990005493164 3.99699997901916
vertex 3.75300002098084 -43.4990005493164 3.99699997901916
vertex 3.75300002098084 -19.4990005493164 3.99699997901916
endloop
endfacet
facet normal -1.0 0.0 0.0
outer loop
vertex 3.75300002098084 -35.1969985961914 21.4669990539551
vertex 3.75300002098084 -35.6269989013672 22.4979991912842
vertex 3.75300002098084 -35.4023933410645 22.4979991912842
endloop
endfacet
facet normal -1.0 -1.38376265093577e-032 5.16765894173522e-033
outer loop
vertex 3.75300002098084 -35.6269989013672 27.0
vertex 3.75300002098084 -43.4990005493164 24.5
vertex 3.75300002098084 -43.4990005493164 27.0
endloop
endfacet
facet normal -1.0 -1.38376265093577e-032 5.16765894173522e-033
outer loop
vertex 3.75300002098084 -43.4990005493164 24.5
vertex 3.75300002098084 -35.6269989013672 27.0
vertex 3.75300002098084 -37.8390005493164 24.5
endloop
endfacet
facet normal -1.0 -1.38376265093577e-032 5.16765894173522e-033
outer loop
vertex 3.75300002098084 -37.8390005493164 24.5
vertex 3.75300002098084 -35.6269989013672 27.0
vertex 3.75300002098084 -37.8390005493164 20.5
endloop
endfacet
facet normal -1.0 -1.38376265093577e-032 5.16765894173522e-033
outer loop
vertex 3.75300002098084 -19.4990005493164 27.0
vertex 3.75300002098084 -27.6219997406006 23.6329746246338
vertex 3.75300002098084 -27.6219997406006 27.0
endloop
endfacet
facet normal -1.0 -1.38376265093577e-032 5.16765894173522e-033
outer loop
vertex 3.75300002098084 -27.6219997406006 23.6329746246338
vertex 3.75300002098084 -19.4990005493164 27.0
vertex 3.75300002098084 -25.1590005493164 24.5
endloop
endfacet
facet normal -1.0 -1.38376265093577e-032 5.16765894173522e-033
outer loop
vertex 3.75300002098084 -27.6219997406006 23.6329746246338
vertex 3.75300002098084 -25.1590005493164 24.5
vertex 3.75300002098084 -27.496000289917 22.9979991912842
endloop
endfacet
facet normal -1.0 -1.38376265093577e-032 5.16765894173522e-033
outer loop
vertex 3.75300002098084 -25.1590005493164 24.5
vertex 3.75300002098084 -19.4990005493164 27.0
vertex 3.75300002098084 -19.4990005493164 24.5
endloop
endfacet
facet normal -1.0 -1.38376265093577e-032 5.16765894173522e-033
outer loop
vertex 3.75300002098084 -37.8390005493164 20.5
vertex 3.75300002098084 -43.4990005493164 3.99699997901916
vertex 3.75300002098084 -43.4990005493164 20.5
endloop
endfacet
facet normal -1.0 -1.38376265093577e-032 5.16765894173522e-033
outer loop
vertex 3.75300002098084 -43.4990005493164 3.99699997901916
vertex 3.75300002098084 -37.8390005493164 20.5
vertex 3.75300002098084 -19.4990005493164 3.99699997901916
endloop
endfacet
facet normal -1.0 -1.38376265093577e-032 5.16765894173522e-033
outer loop
vertex 3.75300002098084 -19.4990005493164 3.99699997901916
vertex 3.75300002098084 -37.8390005493164 20.5
vertex 3.75300002098084 -34.3300018310547 20.168999671936
endloop
endfacet
facet normal -1.0 -1.38376265093577e-032 5.16765894173522e-033
outer loop
vertex 3.75300002098084 -34.3300018310547 20.168999671936
vertex 3.75300002098084 -37.8390005493164 20.5
vertex 3.75300002098084 -35.1969985961914 21.4669990539551
endloop
endfacet
facet normal -1.0 -1.38376265093577e-032 5.16765894173522e-033
outer loop
vertex 3.75300002098084 -35.1969985961914 21.4669990539551
vertex 3.75300002098084 -37.8390005493164 20.5
vertex 3.75300002098084 -35.6269989013672 22.4979991912842
endloop
endfacet
facet normal -1.0 -1.38376265093577e-032 5.16765894173522e-033
outer loop
vertex 3.75300002098084 -35.6269989013672 22.4979991912842
vertex 3.75300002098084 -37.8390005493164 20.5
vertex 3.75300002098084 -35.6269989013672 27.0
endloop
endfacet
facet normal -1.0 -1.38376265093577e-032 5.16765894173522e-033
outer loop
vertex 3.75300002098084 -19.4990005493164 3.99699997901916
vertex 3.75300002098084 -34.3300018310547 20.168999671936
vertex 3.75300002098084 -33.0309982299805 19.3020000457764
endloop
endfacet
facet normal -1.0 -1.38376265093577e-032 5.16765894173522e-033
outer loop
vertex 3.75300002098084 -19.4990005493164 3.99699997901916
vertex 3.75300002098084 -33.0309982299805 19.3020000457764
vertex 3.75300002098084 -31.4990005493164 18.9969997406006
endloop
endfacet
facet normal -1.0 -1.38376265093577e-032 5.16765894173522e-033
outer loop
vertex 3.75300002098084 -19.4990005493164 3.99699997901916
vertex 3.75300002098084 -31.4990005493164 18.9969997406006
vertex 3.75300002098084 -29.9669990539551 19.3020000457764
endloop
endfacet
facet normal -1.0 -1.38376265093577e-032 5.16765894173522e-033
outer loop
vertex 3.75300002098084 -19.4990005493164 3.99699997901916
vertex 3.75300002098084 -29.9669990539551 19.3020000457764
vertex 3.75300002098084 -28.6679992675781 20.168999671936
endloop
endfacet
facet normal -1.0 -1.38376265093577e-032 5.16765894173522e-033
outer loop
vertex 3.75300002098084 -19.4990005493164 3.99699997901916
vertex 3.75300002098084 -28.6679992675781 20.168999671936
vertex 3.75300002098084 -27.7999992370605 21.4669990539551
endloop
endfacet
facet normal -1.0 -1.38376265093577e-032 5.16765894173522e-033
outer loop
vertex 3.75300002098084 -19.4990005493164 3.99699997901916
vertex 3.75300002098084 -27.7999992370605 21.4669990539551
vertex 3.75300002098084 -27.496000289917 22.9979991912842
endloop
endfacet
facet normal -1.0 -1.38376265093577e-032 5.16765894173522e-033
outer loop
vertex 3.75300002098084 -19.4990005493164 3.99699997901916
vertex 3.75300002098084 -27.496000289917 22.9979991912842
vertex 3.75300002098084 -25.1590005493164 20.5
endloop
endfacet
facet normal -1.0 -1.38376265093577e-032 5.16765894173522e-033
outer loop
vertex 3.75300002098084 -25.1590005493164 20.5
vertex 3.75300002098084 -27.496000289917 22.9979991912842
vertex 3.75300002098084 -25.1590005493164 24.5
endloop
endfacet
facet normal -1.0 -1.38376265093577e-032 5.16765894173522e-033
outer loop
vertex 3.75300002098084 -19.4990005493164 3.99699997901916
vertex 3.75300002098084 -25.1590005493164 20.5
vertex 3.75300002098084 -19.4990005493164 20.5
endloop
endfacet
facet normal 0.0 1.0 0.0
outer loop
vertex 3.75300002098084 -35.6269989013672 27.0
vertex 7.75 -35.6269989013672 22.4979991912842
vertex 3.75300002098084 -35.6269989013672 22.4979991912842
endloop
endfacet
facet normal 0.0 1.0 0.0
outer loop
vertex 7.75 -35.6269989013672 22.4979991912842
vertex 3.75300002098084 -35.6269989013672 27.0
vertex 7.75 -35.6269989013672 27.0
endloop
endfacet
facet normal 0.0 0.0 1.0
outer loop
vertex 7.75 -35.4023933410645 22.4979991912842
vertex 3.75300002098084 -35.4023933410645 22.4979991912842
vertex 7.75 -35.6269989013672 22.4979991912842
endloop
endfacet
facet normal 0.0 0.0 1.0
outer loop
vertex 7.75 -35.6269989013672 22.4979991912842
vertex 3.75300002098084 -35.4023933410645 22.4979991912842
vertex 3.75300002098084 -35.6269989013672 22.4979991912842
endloop
endfacet
facet normal 0.0 -1.0 0.0
outer loop
vertex 7.75 -27.6219997406006 27.0
vertex 3.75300002098084 -27.6219997406006 23.6329746246338
vertex 7.75 -27.6219997406006 23.6329746246338
endloop
endfacet
facet normal 0.0 -1.0 0.0
outer loop
vertex 3.75300002098084 -27.6219997406006 23.6329746246338
vertex 7.75 -27.6219997406006 27.0
vertex 3.75300002098084 -27.6219997406006 27.0
endloop
endfacet
facet normal -2.51656483924757e-018 -0.980875330542335 -0.194637062075715
outer loop
vertex 7.75 -27.6219997406006 23.6329746246338
vertex 3.75300002098084 -27.496000289917 22.9979991912842
vertex 7.75 -27.496000289917 22.9979991912842
endloop
endfacet
facet normal -5.03312967849514e-018 -0.980875330542335 -0.194637062075715
outer loop
vertex 3.75300002098084 -27.6219997406006 23.6329746246338
vertex 3.75300002098084 -27.496000289917 22.9979991912842
vertex 7.75 -27.6219997406006 23.6329746246338
endloop
endfacet
facet normal 6.92597127248602e-018 -0.980850919906397 0.194760039327308
outer loop
vertex 3.75300002098084 -27.496000289917 22.9979991912842
vertex 7.75 -27.7999992370605 21.4669990539551
vertex 7.75 -27.496000289917 22.9979991912842
endloop
endfacet
facet normal -7.63535344701551e-018 0.980727709897785 0.195379525638299
outer loop
vertex 7.75 -35.4023933410645 22.4979991912842
vertex 3.75300002098084 -35.1969985961914 21.4669990539551
vertex 3.75300002098084 -35.4023933410645 22.4979991912842
endloop
endfacet
facet normal 3.26336196461636e-017 -0.555143302314816 0.831754719791238
outer loop
vertex 7.75 -28.6679992675781 20.168999671936
vertex 3.75300002098084 -28.6679992675781 20.168999671936
vertex 3.75300002098084 -29.9669990539551 19.3020000457764
endloop
endfacet
facet normal 0.0 -0.195254285962302 0.980752651698353
outer loop
vertex 7.75 -31.4990005493164 18.9969997406006
vertex 3.75300002098084 -29.9669990539551 19.3020000457764
vertex 3.75300002098084 -31.4990005493164 18.9969997406006
endloop
endfacet
facet normal 1.3851942544972e-017 -0.980850919906397 0.194760039327308
outer loop
vertex 3.75300002098084 -27.496000289917 22.9979991912842
vertex 3.75300002098084 -27.7999992370605 21.4669990539551
vertex 7.75 -27.7999992370605 21.4669990539551
endloop
endfacet
facet normal -2.68837017371971e-017 -0.831261117485799 0.555882140886232
outer loop
vertex 3.75300002098084 -27.7999992370605 21.4669990539551
vertex 3.75300002098084 -28.6679992675781 20.168999671936
vertex 7.75 -27.7999992370605 21.4669990539551
endloop
endfacet
facet normal -1.38325220530487e-017 0.19525475361287 0.980752558595479
outer loop
vertex 7.75 -31.4990005493164 18.9969997406006
vertex 3.75300002098084 -33.0309982299805 19.3020000457764
vertex 7.75 -33.0309982299805 19.3020000457764
endloop
endfacet
facet normal 1.6316728757258e-017 0.555142174478784 0.831755472548854
outer loop
vertex 7.75 -34.3300018310547 20.168999671936
vertex 3.75300002098084 -33.0309982299805 19.3020000457764
vertex 3.75300002098084 -34.3300018310547 20.168999671936
endloop
endfacet
facet normal 3.2633457514516e-017 0.555142174478784 0.831755472548854
outer loop
vertex 7.75 -33.0309982299805 19.3020000457764
vertex 3.75300002098084 -33.0309982299805 19.3020000457764
vertex 7.75 -34.3300018310547 20.168999671936
endloop
endfacet
facet normal 8.06799092514353e-017 0.831557997215916 0.555437932865819
outer loop
vertex 3.75300002098084 -35.1969985961914 21.4669990539551
vertex 7.75 -34.3300018310547 20.168999671936
vertex 3.75300002098084 -34.3300018310547 20.168999671936
endloop
endfacet
facet normal 3.26762120676691e-017 0.831557997215916 0.555437932865819
outer loop
vertex 7.75 -35.1969985961914 21.4669990539551
vertex 7.75 -34.3300018310547 20.168999671936
vertex 3.75300002098084 -35.1969985961914 21.4669990539551
endloop
endfacet
facet normal -7.63535344701551e-018 0.980727709897785 0.195379525638299
outer loop
vertex 7.75 -35.4023933410645 22.4979991912842
vertex 7.75 -35.1969985961914 21.4669990539551
vertex 3.75300002098084 -35.1969985961914 21.4669990539551
endloop
endfacet
facet normal 6.91626102652435e-018 0.19525475361287 0.980752558595479
outer loop
vertex 7.75 -31.4990005493164 18.9969997406006
vertex 3.75300002098084 -31.4990005493164 18.9969997406006
vertex 3.75300002098084 -33.0309982299805 19.3020000457764
endloop
endfacet
facet normal 1.63168098230818e-017 -0.555143302314816 0.831754719791238
outer loop
vertex 7.75 -28.6679992675781 20.168999671936
vertex 3.75300002098084 -29.9669990539551 19.3020000457764
vertex 7.75 -29.9669990539551 19.3020000457764
endloop
endfacet
facet normal -6.91622724002266e-018 -0.195254285962302 0.980752651698353
outer loop
vertex 7.75 -29.9669990539551 19.3020000457764
vertex 3.75300002098084 -29.9669990539551 19.3020000457764
vertex 7.75 -31.4990005493164 18.9969997406006
endloop
endfacet
facet normal 0.0 -0.831261117485799 0.555882140886232
outer loop
vertex 7.75 -27.7999992370605 21.4669990539551
vertex 3.75300002098084 -28.6679992675781 20.168999671936
vertex 7.75 -28.6679992675781 20.168999671936
endloop
endfacet
facet normal 0.0 1.0 0.0
outer loop
vertex -46.05 -35.6269989013672 27.0
vertex -42.0529983520508 -35.6269989013672 22.4979991912842
vertex -46.05 -35.6269989013672 22.4979991912842
endloop
endfacet
facet normal 0.0 1.0 0.0
outer loop
vertex -42.0529983520508 -35.6269989013672 22.4979991912842
vertex -46.05 -35.6269989013672 27.0
vertex -42.0529983520508 -35.6269989013672 27.0
endloop
endfacet
facet normal 0.0 0.0 1.0
outer loop
vertex -42.0529983520508 -35.6269989013672 22.4979991912842
vertex -46.05 -35.4023933410645 22.4979991912842
vertex -46.05 -35.6269989013672 22.4979991912842
endloop
endfacet
facet normal 0.0 0.0 1.0
outer loop
vertex -42.0529983520508 -35.4023933410645 22.4979991912842
vertex -46.05 -35.4023933410645 22.4979991912842
vertex -42.0529983520508 -35.6269989013672 22.4979991912842
endloop
endfacet
facet normal 0.0 -1.0 0.0
outer loop
vertex -42.0529983520508 -27.6219997406006 27.0
vertex -46.05 -27.6219997406006 23.6329746246338
vertex -42.0529983520508 -27.6219997406006 23.6329746246338
endloop
endfacet
facet normal 0.0 -1.0 0.0
outer loop
vertex -46.05 -27.6219997406006 23.6329746246338
vertex -42.0529983520508 -27.6219997406006 27.0
vertex -46.05 -27.6219997406006 27.0
endloop
endfacet
facet normal -2.51656273768736e-018 -0.980875330542335 -0.194637062075715
outer loop
vertex -42.0529983520508 -27.6219997406006 23.6329746246338
vertex -46.05 -27.496000289917 22.9979991912842
vertex -42.0529983520508 -27.496000289917 22.9979991912842
endloop
endfacet
facet normal -5.03312547537472e-018 -0.980875330542335 -0.194637062075715
outer loop
vertex -46.05 -27.6219997406006 23.6329746246338
vertex -46.05 -27.496000289917 22.9979991912842
vertex -42.0529983520508 -27.6219997406006 23.6329746246338
endloop
endfacet
facet normal 0.0 0.831557997215916 0.555437932865819
outer loop
vertex -42.0529983520508 -35.1969985961914 21.4669990539551
vertex -46.05 -34.3300018310547 20.168999671936
vertex -46.05 -35.1969985961914 21.4669990539551
endloop
endfacet
facet normal 1.14530206062028e-017 0.980727709897785 0.195379525638299
outer loop
vertex -46.05 -35.4023933410645 22.4979991912842
vertex -42.0529983520508 -35.1969985961914 21.4669990539551
vertex -46.05 -35.1969985961914 21.4669990539551
endloop
endfacet
facet normal 1.63167961970636e-017 -0.555143302314816 0.831754719791238
outer loop
vertex -42.0529983520508 -28.6679992675781 20.168999671936
vertex -46.05 -28.6679992675781 20.168999671936
vertex -46.05 -29.9669990539551 19.3020000457764
endloop
endfacet
facet normal 6.91622146434473e-018 -0.195254285962302 0.980752651698353
outer loop
vertex -42.0529983520508 -31.4990005493164 18.9969997406006
vertex -46.05 -29.9669990539551 19.3020000457764
vertex -46.05 -31.4990005493164 18.9969997406006
endloop
endfacet
facet normal 6.92596548867094e-018 -0.980850919906397 0.194760039327308
outer loop
vertex -46.05 -27.496000289917 22.9979991912842
vertex -42.0529983520508 -27.7999992370605 21.4669990539551
vertex -42.0529983520508 -27.496000289917 22.9979991912842
endloop
endfacet
facet normal 6.92596548867094e-018 -0.980850919906397 0.194760039327308
outer loop
vertex -46.05 -27.496000289917 22.9979991912842
vertex -46.05 -27.7999992370605 21.4669990539551
vertex -42.0529983520508 -27.7999992370605 21.4669990539551
endloop
endfacet
facet normal 1.63322594253133e-017 -0.831261117485799 0.555882140886232
outer loop
vertex -46.05 -27.7999992370605 21.4669990539551
vertex -46.05 -28.6679992675781 20.168999671936
vertex -42.0529983520508 -27.7999992370605 21.4669990539551
endloop
endfacet
facet normal 6.91625525081821e-018 0.19525475361287 0.980752558595479
outer loop
vertex -42.0529983520508 -33.0309982299805 19.3020000457764
vertex -46.05 -31.4990005493164 18.9969997406006
vertex -46.05 -33.0309982299805 19.3020000457764
endloop
endfacet
facet normal 0.0 0.555142174478784 0.831755472548854
outer loop
vertex -42.0529983520508 -34.3300018310547 20.168999671936
vertex -46.05 -33.0309982299805 19.3020000457764
vertex -46.05 -34.3300018310547 20.168999671936
endloop
endfacet
facet normal 0.0 0.555142174478784 0.831755472548854
outer loop
vertex -42.0529983520508 -33.0309982299805 19.3020000457764
vertex -46.05 -33.0309982299805 19.3020000457764
vertex -42.0529983520508 -34.3300018310547 20.168999671936
endloop
endfacet
facet normal 0.0 0.831557997215916 0.555437932865819
outer loop
vertex -42.0529983520508 -35.1969985961914 21.4669990539551
vertex -42.0529983520508 -34.3300018310547 20.168999671936
vertex -46.05 -34.3300018310547 20.168999671936
endloop
endfacet
facet normal 1.14530206062028e-017 0.980727709897785 0.195379525638299
outer loop
vertex -42.0529983520508 -35.4023933410645 22.4979991912842
vertex -42.0529983520508 -35.1969985961914 21.4669990539551
vertex -46.05 -35.4023933410645 22.4979991912842
endloop
endfacet
facet normal 0.0 0.19525475361287 0.980752558595479
outer loop
vertex -42.0529983520508 -31.4990005493164 18.9969997406006
vertex -46.05 -31.4990005493164 18.9969997406006
vertex -42.0529983520508 -33.0309982299805 19.3020000457764
endloop
endfacet
facet normal 1.63167961970636e-017 -0.555143302314816 0.831754719791238
outer loop
vertex -42.0529983520508 -28.6679992675781 20.168999671936
vertex -46.05 -29.9669990539551 19.3020000457764
vertex -42.0529983520508 -29.9669990539551 19.3020000457764
endloop
endfacet
facet normal 0.0 -0.195254285962302 0.980752651698353
outer loop
vertex -42.0529983520508 -29.9669990539551 19.3020000457764
vertex -46.05 -29.9669990539551 19.3020000457764
vertex -42.0529983520508 -31.4990005493164 18.9969997406006
endloop
endfacet
facet normal 1.63322594253133e-017 -0.831261117485799 0.555882140886232
outer loop
vertex -42.0529983520508 -27.7999992370605 21.4669990539551
vertex -46.05 -28.6679992675781 20.168999671936
vertex -42.0529983520508 -28.6679992675781 20.168999671936
endloop
endfacet
facet normal -1.29391613448038e-017 -1.0 4.75263467735474e-017
outer loop
vertex 7.75 -43.4990005493164 0.0
vertex 3.75300002098084 -43.4990005493164 3.99699997901916
vertex -46.05 -43.4990005493164 0.0
endloop
endfacet
facet normal -1.29391613448038e-017 -1.0 4.75263467735474e-017
outer loop
vertex 3.75300002098084 -43.4990005493164 3.99699997901916
vertex 7.75 -43.4990005493164 0.0
vertex 7.75 -43.4990005493164 27.0
endloop
endfacet
facet normal -1.29391613448038e-017 -1.0 4.75263467735474e-017
outer loop
vertex 3.75300002098084 -43.4990005493164 3.99699997901916
vertex 7.75 -43.4990005493164 27.0
vertex 3.75300002098084 -43.4990005493164 20.5
endloop
endfacet
facet normal -1.29391613448038e-017 -1.0 4.75263467735474e-017
outer loop
vertex 3.75300002098084 -43.4990005493164 20.5
vertex 7.75 -43.4990005493164 27.0
vertex 0.753000020980836 -43.4990005493164 20.5
endloop
endfacet
facet normal -1.29391613448038e-017 -1.0 4.75263467735474e-017
outer loop
vertex 0.753000020980836 -43.4990005493164 20.5
vertex 7.75 -43.4990005493164 27.0
vertex 0.753000020980836 -43.4990005493164 22.5
endloop
endfacet
facet normal -1.29391613448038e-017 -1.0 4.75263467735474e-017
outer loop
vertex 0.753000020980836 -43.4990005493164 22.5
vertex 7.75 -43.4990005493164 27.0
vertex 3.75300002098084 -43.4990005493164 24.5
endloop
endfacet
facet normal -1.29391613448038e-017 -1.0 4.75263467735474e-017
outer loop
vertex 3.75300002098084 -43.4990005493164 24.5
vertex 7.75 -43.4990005493164 27.0
vertex 3.75300002098084 -43.4990005493164 27.0
endloop
endfacet
facet normal -1.29391613448038e-017 -1.0 4.75263467735474e-017
outer loop
vertex -39.0529983520508 -43.4990005493164 22.5
vertex -42.0529983520508 -43.4990005493164 20.5
vertex -39.0529983520508 -43.4990005493164 20.5
endloop
endfacet
facet normal -1.29391613448038e-017 -1.0 4.75263467735474e-017
outer loop
vertex -46.05 -43.4990005493164 0.0
vertex -42.0529983520508 -43.4990005493164 3.99699997901916
vertex -46.05 -43.4990005493164 27.0
endloop
endfacet
facet normal -1.29391613448038e-017 -1.0 4.75263467735474e-017
outer loop
vertex -42.0529983520508 -43.4990005493164 3.99699997901916
vertex -46.05 -43.4990005493164 0.0
vertex 3.75300002098084 -43.4990005493164 3.99699997901916
endloop
endfacet
facet normal -1.29391613448038e-017 -1.0 4.75263467735474e-017
outer loop
vertex -46.05 -43.4990005493164 27.0
vertex -42.0529983520508 -43.4990005493164 3.99699997901916
vertex -42.0529983520508 -43.4990005493164 20.5
endloop
endfacet
facet normal -1.29391613448038e-017 -1.0 4.75263467735474e-017
outer loop
vertex -46.05 -43.4990005493164 27.0
vertex -42.0529983520508 -43.4990005493164 20.5
vertex -39.0529983520508 -43.4990005493164 22.5
endloop
endfacet
facet normal -1.29391613448038e-017 -1.0 4.75263467735474e-017
outer loop
vertex -46.05 -43.4990005493164 27.0
vertex -39.0529983520508 -43.4990005493164 22.5
vertex -42.0529983520508 -43.4990005493164 24.5
endloop
endfacet
facet normal -1.29391613448038e-017 -1.0 4.75263467735474e-017
outer loop
vertex -46.05 -43.4990005493164 27.0
vertex -42.0529983520508 -43.4990005493164 24.5
vertex -42.0529983520508 -43.4990005493164 27.0
endloop
endfacet
facet normal 1.0 0.0 0.0
outer loop
vertex -39.0529983520508 -37.8390005493164 20.5
vertex -39.0529983520508 -43.4990005493164 22.5
vertex -39.0529983520508 -43.4990005493164 20.5
endloop
endfacet
facet normal 1.0 0.0 0.0
outer loop
vertex -39.0529983520508 -43.4990005493164 22.5
vertex -39.0529983520508 -37.8390005493164 20.5
vertex -39.0529983520508 -37.8390005493164 22.5
endloop
endfacet
facet normal 0.0 0.0 -1.0
outer loop
vertex -39.0529983520508 -37.8390005493164 20.5
vertex -42.0529983520508 -43.4990005493164 20.5
vertex -42.0529983520508 -37.8390005493164 20.5
endloop
endfacet
facet normal 0.0 0.0 -1.0
outer loop
vertex -42.0529983520508 -43.4990005493164 20.5
vertex -39.0529983520508 -37.8390005493164 20.5
vertex -39.0529983520508 -43.4990005493164 20.5
endloop
endfacet
facet normal -1.0 0.0 0.0
outer loop
vertex 0.753000020980836 -43.4990005493164 22.5
vertex 0.753000020980836 -37.8390005493164 20.5
vertex 0.753000020980836 -43.4990005493164 20.5
endloop
endfacet
facet normal -1.0 0.0 0.0
outer loop
vertex 0.753000020980836 -37.8390005493164 20.5
vertex 0.753000020980836 -43.4990005493164 22.5
vertex 0.753000020980836 -37.8390005493164 22.5
endloop
endfacet
facet normal -0.0 -0.0 -1.0
outer loop
vertex 3.75300002098084 -37.8390005493164 20.5
vertex 0.753000020980836 -43.4990005493164 20.5
vertex 0.753000020980836 -37.8390005493164 20.5
endloop
endfacet
facet normal -0.0 -0.0 -1.0
outer loop
vertex 0.753000020980836 -43.4990005493164 20.5
vertex 3.75300002098084 -37.8390005493164 20.5
vertex 3.75300002098084 -43.4990005493164 20.5
endloop
endfacet
facet normal 0.0 1.0 0.0
outer loop
vertex -42.0529983520508 -37.8390005493164 24.5
vertex -39.0529983520508 -37.8390005493164 20.5
vertex -42.0529983520508 -37.8390005493164 20.5
endloop
endfacet
facet normal 0.0 1.0 0.0
outer loop
vertex -39.0529983520508 -37.8390005493164 20.5
vertex -42.0529983520508 -37.8390005493164 24.5
vertex -39.0529983520508 -37.8390005493164 22.5
endloop
endfacet
facet normal 0.0 1.0 0.0
outer loop
vertex 0.753000020980836 -37.8390005493164 22.5
vertex 3.75300002098084 -37.8390005493164 20.5
vertex 0.753000020980836 -37.8390005493164 20.5
endloop
endfacet
facet normal 0.0 1.0 0.0
outer loop
vertex 3.75300002098084 -37.8390005493164 20.5
vertex 0.753000020980836 -37.8390005493164 22.5
vertex 3.75300002098084 -37.8390005493164 24.5
endloop
endfacet
facet normal -0.554700196225229 -9.68931668375743e-018 0.832050294337843
outer loop
vertex 3.75300002098084 -43.4990005493164 24.5
vertex 0.753000020980836 -37.8390005493164 22.5
vertex 0.753000020980836 -43.4990005493164 22.5
endloop
endfacet
facet normal -0.554700196225229 -9.68931668375743e-018 0.832050294337843
outer loop
vertex 0.753000020980836 -37.8390005493164 22.5
vertex 3.75300002098084 -43.4990005493164 24.5
vertex 3.75300002098084 -37.8390005493164 24.5
endloop
endfacet
facet normal 0.554700196225229 1.45339750256356e-017 0.832050294337843
outer loop
vertex -39.0529983520508 -43.4990005493164 22.5
vertex -42.0529983520508 -37.8390005493164 24.5
vertex -42.0529983520508 -43.4990005493164 24.5
endloop
endfacet
facet normal 0.554700196225229 1.45339750256356e-017 0.832050294337843
outer loop
vertex -42.0529983520508 -37.8390005493164 24.5
vertex -39.0529983520508 -43.4990005493164 22.5
vertex -39.0529983520508 -37.8390005493164 22.5
endloop
endfacet
facet normal 1.0 0.0 0.0
outer loop
vertex -42.0529983520508 -19.4990005493164 3.99699997901916
vertex -42.0529983520508 -43.4990005493164 20.5
vertex -42.0529983520508 -43.4990005493164 3.99699997901916
endloop
endfacet
facet normal 1.0 0.0 0.0
outer loop
vertex -42.0529983520508 -43.4990005493164 20.5
vertex -42.0529983520508 -19.4990005493164 3.99699997901916
vertex -42.0529983520508 -37.8390005493164 20.5
endloop
endfacet
facet normal 1.0 0.0 0.0
outer loop
vertex -42.0529983520508 -37.8390005493164 20.5
vertex -42.0529983520508 -19.4990005493164 3.99699997901916
vertex -42.0529983520508 -34.3300018310547 20.168999671936
endloop
endfacet
facet normal 1.0 0.0 0.0
outer loop
vertex -42.0529983520508 -37.8390005493164 20.5
vertex -42.0529983520508 -34.3300018310547 20.168999671936
vertex -42.0529983520508 -37.8390005493164 24.5
endloop
endfacet
facet normal 1.0 0.0 0.0
outer loop
vertex -42.0529983520508 -37.8390005493164 24.5
vertex -42.0529983520508 -34.3300018310547 20.168999671936
vertex -42.0529983520508 -35.1969985961914 21.4669990539551
endloop
endfacet
facet normal 1.0 0.0 0.0
outer loop
vertex -42.0529983520508 -37.8390005493164 24.5
vertex -42.0529983520508 -35.1969985961914 21.4669990539551
vertex -42.0529983520508 -35.6269989013672 22.4979991912842
endloop
endfacet
facet normal 1.0 0.0 0.0
outer loop
vertex -42.0529983520508 -34.3300018310547 20.168999671936
vertex -42.0529983520508 -19.4990005493164 3.99699997901916
vertex -42.0529983520508 -33.0309982299805 19.3020000457764
endloop
endfacet
facet normal 1.0 0.0 0.0
outer loop
vertex -42.0529983520508 -33.0309982299805 19.3020000457764
vertex -42.0529983520508 -19.4990005493164 3.99699997901916
vertex -42.0529983520508 -31.4990005493164 18.9969997406006
endloop
endfacet
facet normal 1.0 0.0 0.0
outer loop
vertex -42.0529983520508 -31.4990005493164 18.9969997406006
vertex -42.0529983520508 -19.4990005493164 3.99699997901916
vertex -42.0529983520508 -29.9669990539551 19.3020000457764
endloop
endfacet
facet normal 1.0 0.0 0.0
outer loop
vertex -42.0529983520508 -29.9669990539551 19.3020000457764
vertex -42.0529983520508 -19.4990005493164 3.99699997901916
vertex -42.0529983520508 -28.6679992675781 20.168999671936
endloop
endfacet
facet normal 1.0 0.0 0.0
outer loop
vertex -42.0529983520508 -28.6679992675781 20.168999671936
vertex -42.0529983520508 -19.4990005493164 3.99699997901916
vertex -42.0529983520508 -27.7999992370605 21.4669990539551
endloop
endfacet
facet normal 1.0 0.0 0.0
outer loop
vertex -42.0529983520508 -27.7999992370605 21.4669990539551
vertex -42.0529983520508 -19.4990005493164 3.99699997901916
vertex -42.0529983520508 -27.496000289917 22.9979991912842
endloop
endfacet
facet normal 1.0 0.0 0.0
outer loop
vertex -42.0529983520508 -27.496000289917 22.9979991912842
vertex -42.0529983520508 -19.4990005493164 3.99699997901916
vertex -42.0529983520508 -25.1590005493164 20.5
endloop
endfacet
facet normal 1.0 0.0 0.0
outer loop
vertex -42.0529983520508 -25.1590005493164 20.5
vertex -42.0529983520508 -19.4990005493164 3.99699997901916
vertex -42.0529983520508 -19.4990005493164 20.5
endloop
endfacet
facet normal 1.0 0.0 0.0
outer loop
vertex -42.0529983520508 -27.496000289917 22.9979991912842
vertex -42.0529983520508 -27.6219997406006 27.0
vertex -42.0529983520508 -27.6219997406006 23.6329746246338
endloop
endfacet
facet normal 1.0 0.0 0.0
outer loop
vertex -42.0529983520508 -27.6219997406006 27.0
vertex -42.0529983520508 -27.496000289917 22.9979991912842
vertex -42.0529983520508 -25.1590005493164 24.5
endloop
endfacet
facet normal 1.0 0.0 0.0
outer loop
vertex -42.0529983520508 -27.6219997406006 27.0
vertex -42.0529983520508 -25.1590005493164 24.5
vertex -42.0529983520508 -19.4990005493164 27.0
endloop
endfacet
facet normal 1.0 0.0 0.0
outer loop
vertex -42.0529983520508 -25.1590005493164 24.5
vertex -42.0529983520508 -27.496000289917 22.9979991912842
vertex -42.0529983520508 -25.1590005493164 20.5
endloop
endfacet
facet normal 1.0 0.0 0.0
outer loop
vertex -42.0529983520508 -19.4990005493164 27.0
vertex -42.0529983520508 -25.1590005493164 24.5
vertex -42.0529983520508 -19.4990005493164 24.5
endloop
endfacet
facet normal 1.0 0.0 0.0
outer loop
vertex -42.0529983520508 -37.8390005493164 24.5
vertex -42.0529983520508 -43.4990005493164 27.0
vertex -42.0529983520508 -43.4990005493164 24.5
endloop
endfacet
facet normal 1.0 0.0 0.0
outer loop
vertex -42.0529983520508 -43.4990005493164 27.0
vertex -42.0529983520508 -37.8390005493164 24.5
vertex -42.0529983520508 -35.6269989013672 27.0
endloop
endfacet
facet normal 1.0 0.0 0.0
outer loop
vertex -42.0529983520508 -35.6269989013672 27.0
vertex -42.0529983520508 -37.8390005493164 24.5
vertex -42.0529983520508 -35.6269989013672 22.4979991912842
endloop
endfacet
facet normal 1.0 0.0 0.0
outer loop
vertex -39.0529983520508 -19.4990005493164 20.5
vertex -39.0529983520508 -25.1590005493164 22.5
vertex -39.0529983520508 -25.1590005493164 20.5
endloop
endfacet
facet normal 1.0 0.0 0.0
outer loop
vertex -39.0529983520508 -25.1590005493164 22.5
vertex -39.0529983520508 -19.4990005493164 20.5
vertex -39.0529983520508 -19.4990005493164 22.5
endloop
endfacet
facet normal 2.25597318603833e-015 -1.0 1.12798659301916e-015
outer loop
vertex -39.0529983520508 -25.1590005493164 22.5
vertex -42.0529983520508 -25.1590005493164 20.5
vertex -39.0529983520508 -25.1590005493164 20.5
endloop
endfacet
facet normal 2.25597318603833e-015 -1.0 1.12798659301916e-015
outer loop
vertex -42.0529983520508 -25.1590005493164 20.5
vertex -39.0529983520508 -25.1590005493164 22.5
vertex -42.0529983520508 -25.1590005493164 24.5
endloop
endfacet
facet normal 0.0 0.0 -1.0
outer loop
vertex -39.0529983520508 -19.4990005493164 20.5
vertex -42.0529983520508 -25.1590005493164 20.5
vertex -42.0529983520508 -19.4990005493164 20.5
endloop
endfacet
facet normal 0.0 0.0 -1.0
outer loop
vertex -42.0529983520508 -25.1590005493164 20.5
vertex -39.0529983520508 -19.4990005493164 20.5
vertex -39.0529983520508 -25.1590005493164 20.5
endloop
endfacet
facet normal 0.554700196225232 1.45339750256334e-017 0.832050294337842
outer loop
vertex -39.0529983520508 -25.1590005493164 22.5
vertex -42.0529983520508 -19.4990005493164 24.5
vertex -42.0529983520508 -25.1590005493164 24.5
endloop
endfacet
facet normal 0.554700196225232 1.45339750256334e-017 0.832050294337842
outer loop
vertex -42.0529983520508 -19.4990005493164 24.5
vertex -39.0529983520508 -25.1590005493164 22.5
vertex -39.0529983520508 -19.4990005493164 22.5
endloop
endfacet
facet normal -1.0 0.0 0.0
outer loop
vertex 0.753000020980842 -19.4990005493164 22.5
vertex 0.753000020980842 -25.1590005493164 20.5
vertex 0.753000020980842 -25.1590005493164 22.5
endloop
endfacet
facet normal -1.0 0.0 0.0
outer loop
vertex 0.753000020980842 -25.1590005493164 20.5
vertex 0.753000020980842 -19.4990005493164 22.5
vertex 0.753000020980842 -19.4990005493164 20.5
endloop
endfacet
facet normal -0.0 -0.0 -1.0
outer loop
vertex 3.75300002098084 -19.4990005493164 20.5
vertex 0.753000020980842 -25.1590005493164 20.5
vertex 0.753000020980842 -19.4990005493164 20.5
endloop
endfacet
facet normal -0.0 -0.0 -1.0
outer loop
vertex 0.753000020980842 -25.1590005493164 20.5
vertex 3.75300002098084 -19.4990005493164 20.5
vertex 3.75300002098084 -25.1590005493164 20.5
endloop
endfacet
facet normal 0.0 -1.0 0.0
outer loop
vertex 3.75300002098084 -25.1590005493164 24.5
vertex 0.753000020980842 -25.1590005493164 20.5
vertex 3.75300002098084 -25.1590005493164 20.5
endloop
endfacet
facet normal 0.0 -1.0 0.0
outer loop
vertex 0.753000020980842 -25.1590005493164 20.5
vertex 3.75300002098084 -25.1590005493164 24.5
vertex 0.753000020980842 -25.1590005493164 22.5
endloop
endfacet
facet normal 0.0 1.0 0.0
outer loop
vertex -46.05 -19.4990005493164 0.0
vertex -42.0529983520508 -19.4990005493164 3.99699997901916
vertex 7.75 -19.4990005493164 0.0
endloop
endfacet
facet normal 0.0 1.0 0.0
outer loop
vertex -42.0529983520508 -19.4990005493164 3.99699997901916
vertex -46.05 -19.4990005493164 0.0
vertex -46.05 -19.4990005493164 27.0
endloop
endfacet
facet normal 0.0 1.0 0.0
outer loop
vertex -42.0529983520508 -19.4990005493164 3.99699997901916
vertex -46.05 -19.4990005493164 27.0
vertex -42.0529983520508 -19.4990005493164 20.5
endloop
endfacet
facet normal 0.0 1.0 0.0
outer loop
vertex -42.0529983520508 -19.4990005493164 20.5
vertex -46.05 -19.4990005493164 27.0
vertex -39.0529983520508 -19.4990005493164 20.5
endloop
endfacet
facet normal 0.0 1.0 0.0
outer loop
vertex -39.0529983520508 -19.4990005493164 20.5
vertex -46.05 -19.4990005493164 27.0
vertex -39.0529983520508 -19.4990005493164 22.5
endloop
endfacet
facet normal 0.0 1.0 0.0
outer loop
vertex -39.0529983520508 -19.4990005493164 22.5
vertex -46.05 -19.4990005493164 27.0
vertex -42.0529983520508 -19.4990005493164 24.5
endloop
endfacet
facet normal 0.0 1.0 0.0
outer loop
vertex -42.0529983520508 -19.4990005493164 24.5
vertex -46.05 -19.4990005493164 27.0
vertex -42.0529983520508 -19.4990005493164 27.0
endloop
endfacet
facet normal 0.0 1.0 0.0
outer loop
vertex 0.753000020980842 -19.4990005493164 22.5
vertex 3.75300002098084 -19.4990005493164 20.5
vertex 0.753000020980842 -19.4990005493164 20.5
endloop
endfacet
facet normal 0.0 1.0 0.0
outer loop
vertex 7.75 -19.4990005493164 0.0
vertex 3.75300002098084 -19.4990005493164 3.99699997901916
vertex 7.75 -19.4990005493164 27.0
endloop
endfacet
facet normal 0.0 1.0 0.0
outer loop
vertex 3.75300002098084 -19.4990005493164 3.99699997901916
vertex 7.75 -19.4990005493164 0.0
vertex -42.0529983520508 -19.4990005493164 3.99699997901916
endloop
endfacet
facet normal 0.0 1.0 0.0
outer loop
vertex 7.75 -19.4990005493164 27.0
vertex 3.75300002098084 -19.4990005493164 3.99699997901916
vertex 3.75300002098084 -19.4990005493164 20.5
endloop
endfacet
facet normal 0.0 1.0 0.0
outer loop
vertex 7.75 -19.4990005493164 27.0
vertex 3.75300002098084 -19.4990005493164 20.5
vertex 0.753000020980842 -19.4990005493164 22.5
endloop
endfacet
facet normal 0.0 1.0 0.0
outer loop
vertex 7.75 -19.4990005493164 27.0
vertex 0.753000020980842 -19.4990005493164 22.5
vertex 3.75300002098084 -19.4990005493164 24.5
endloop
endfacet
facet normal 0.0 1.0 0.0
outer loop
vertex 7.75 -19.4990005493164 27.0
vertex 3.75300002098084 -19.4990005493164 24.5
vertex 3.75300002098084 -19.4990005493164 27.0
endloop
endfacet
facet normal -0.55470019622523 0.0 0.832050294337843
outer loop
vertex 3.75300002098084 -25.1590005493164 24.5
vertex 0.753000020980842 -19.4990005493164 22.5
vertex 0.753000020980842 -25.1590005493164 22.5
endloop
endfacet
facet normal -0.55470019622523 0.0 0.832050294337843
outer loop
vertex 0.753000020980842 -19.4990005493164 22.5
vertex 3.75300002098084 -25.1590005493164 24.5
vertex 3.75300002098084 -19.4990005493164 24.5
endloop
endfacet
endsolid model
